<?xml version="1.0" encoding="UTF-8" ?>
<!DOCTYPE svg PUBLIC "-//W3C//DTD SVG 1.1//EN" "http://www.w3.org/Graphics/SVG/1.1/DTD/svg11.dtd">
<svg width="794pt" height="595pt" viewBox="0 0 794 595" version="1.1" xmlns="http://www.w3.org/2000/svg">
<g id="#ffffffff">
<path fill="#ffffff" opacity="1.00" d=" M 110.87 185.85 C 119.08 173.74 132.55 165.45 147.11 163.75 C 161.75 162.13 177.50 163.70 190.17 171.77 C 199.59 177.78 205.83 187.84 208.50 198.55 C 202.61 198.61 196.71 198.59 190.82 198.56 C 188.37 192.45 184.50 186.70 178.75 183.25 C 168.78 177.01 156.02 176.75 144.95 179.88 C 133.20 183.26 124.38 193.48 121.01 205.02 C 117.19 217.94 116.97 231.94 120.14 245.03 C 123.08 257.41 131.56 268.96 143.79 273.38 C 157.00 278.13 173.42 276.97 183.95 266.93 C 191.53 260.18 195.19 250.02 195.50 240.04 C 185.56 239.55 175.61 239.91 165.66 239.81 C 165.63 235.21 165.65 230.63 165.65 226.04 C 180.55 226.00 195.45 226.01 210.35 226.04 C 210.35 246.55 210.34 267.06 210.36 287.57 C 207.05 287.60 203.74 287.61 200.44 287.59 C 199.06 281.37 197.81 275.13 196.40 268.93 C 189.32 279.30 178.75 287.75 166.21 290.15 C 153.29 292.29 139.34 290.94 127.94 284.10 C 112.05 274.80 102.46 257.13 100.37 239.14 C 98.24 220.97 100.25 201.26 110.87 185.85 Z" />
<path fill="#ffffff" opacity="1.00" d=" M 510.45 164.61 C 526.44 162.74 544.00 164.78 556.94 175.17 C 569.49 184.96 575.75 200.73 577.34 216.21 C 579.03 234.49 577.54 254.30 566.95 269.91 C 559.16 281.67 546.05 289.30 532.16 291.21 C 515.73 293.39 497.55 291.44 484.21 280.77 C 471.17 270.63 464.99 254.06 463.68 238.02 C 462.21 219.68 464.19 199.74 475.46 184.53 C 483.59 173.24 496.76 166.28 510.45 164.61 M 517.15 179.14 C 508.62 179.68 500.00 182.73 493.94 188.93 C 485.26 197.53 481.97 210.06 481.41 221.93 C 480.77 234.52 481.64 247.82 487.90 259.06 C 492.18 266.94 499.65 273.05 508.34 275.38 C 517.50 277.76 527.45 277.61 536.35 274.24 C 544.95 270.97 551.61 263.72 555.19 255.34 C 559.62 244.95 560.49 233.36 559.89 222.19 C 559.17 210.19 556.02 197.49 547.18 188.81 C 539.44 180.96 527.85 178.34 517.15 179.14 Z" />
<path fill="#ffffff" opacity="1.00" d=" M 271.33 287.59 C 285.82 247.30 300.07 206.92 314.57 166.63 C 322.84 166.66 331.11 166.65 339.39 166.63 C 353.77 206.96 368.17 247.27 382.58 287.58 C 375.94 287.62 369.31 287.58 362.67 287.61 C 359.63 278.77 356.56 269.94 353.68 261.05 C 335.79 260.87 317.90 261.01 300.00 260.97 C 297.20 269.83 294.32 278.67 291.61 287.56 C 284.85 287.63 278.09 287.59 271.33 287.59 M 304.75 246.19 C 319.36 246.20 333.98 246.22 348.59 246.17 C 341.10 224.22 333.56 202.28 326.01 180.34 C 318.82 202.25 311.90 224.26 304.75 246.19 Z" />
<path fill="#ffffff" opacity="1.00" d=" M 695.39 434.46 C 711.54 434.46 727.70 434.50 743.86 434.43 C 743.87 436.67 743.87 438.92 743.91 441.17 C 727.74 441.10 711.57 441.11 695.40 441.17 C 695.39 438.93 695.39 436.69 695.39 434.46 Z" />
<path fill="#ffffff" opacity="1.00" d=" M 695.38 444.36 C 711.57 444.25 727.76 444.20 743.95 444.38 C 743.93 445.07 743.90 446.44 743.89 447.12 C 727.68 447.14 711.47 447.27 695.26 447.05 C 695.29 446.38 695.35 445.03 695.38 444.36 Z" />
</g>
<g id="#3715e7ff">
<path fill="#3715e7" opacity="1.00" d=" M 133.70 162.76 C 147.78 157.97 163.31 157.64 177.69 161.32 C 191.91 165.00 204.71 174.93 210.49 188.61 C 212.45 193.08 213.66 197.84 214.56 202.62 C 205.43 202.67 196.31 202.63 187.19 202.64 C 185.22 195.93 181.21 189.53 174.97 186.07 C 167.51 181.66 158.34 181.45 150.02 182.89 C 142.22 184.42 135.12 189.06 130.66 195.64 C 124.14 205.01 122.56 216.81 122.62 227.96 C 122.76 240.03 125.50 252.92 134.12 261.90 C 140.59 269.01 150.48 272.27 159.95 271.85 C 168.53 272.03 177.14 268.33 182.79 261.85 C 187.26 256.95 189.51 250.51 190.50 244.05 C 180.66 243.98 170.82 244.04 160.98 244.02 C 160.96 236.54 160.95 229.07 160.97 221.60 C 178.99 221.60 197.01 221.60 215.03 221.60 C 215.03 245.07 215.03 268.54 215.03 292.02 C 208.95 291.99 202.87 292.12 196.79 291.91 C 195.56 286.79 194.33 281.61 194.77 276.29 C 189.01 286.40 178.23 292.83 166.89 294.58 C 151.85 296.92 135.58 294.75 122.71 286.25 C 109.23 277.35 100.10 262.68 96.84 246.97 C 93.52 230.93 94.01 213.92 99.18 198.32 C 104.65 182.14 117.41 168.33 133.70 162.76 M 110.87 185.85 C 100.25 201.26 98.24 220.97 100.37 239.14 C 102.46 257.13 112.05 274.80 127.94 284.10 C 139.34 290.94 153.29 292.29 166.21 290.15 C 178.75 287.75 189.32 279.30 196.40 268.93 C 197.81 275.13 199.06 281.37 200.44 287.59 C 203.74 287.61 207.05 287.60 210.36 287.57 C 210.34 267.06 210.35 246.55 210.35 226.04 C 195.45 226.01 180.55 226.00 165.65 226.04 C 165.65 230.63 165.63 235.21 165.66 239.81 C 175.61 239.91 185.56 239.55 195.50 240.04 C 195.19 250.02 191.53 260.18 183.95 266.93 C 173.42 276.97 157.00 278.13 143.79 273.38 C 131.56 268.96 123.08 257.41 120.14 245.03 C 116.97 231.94 117.19 217.94 121.01 205.02 C 124.38 193.48 133.20 183.26 144.95 179.88 C 156.02 176.75 168.78 177.01 178.75 183.25 C 184.50 186.70 188.37 192.45 190.82 198.56 C 196.71 198.59 202.61 198.61 208.50 198.55 C 205.83 187.84 199.59 177.78 190.17 171.77 C 177.50 163.70 161.75 162.13 147.11 163.75 C 132.55 165.45 119.08 173.74 110.87 185.85 Z" />
<path fill="#3715e7" opacity="1.00" d=" M 514.18 160.29 C 531.20 158.91 549.68 162.53 562.52 174.47 C 574.81 185.44 580.65 201.88 581.97 217.96 C 583.36 236.38 581.48 256.18 570.89 271.87 C 562.66 284.36 548.86 292.64 534.14 294.87 C 516.97 297.55 498.04 295.72 483.53 285.43 C 471.11 276.76 463.44 262.60 460.67 247.91 C 457.75 232.22 458.07 215.75 462.62 200.40 C 466.96 185.80 477.10 172.71 491.00 166.16 C 498.23 162.65 506.19 160.85 514.18 160.29 M 510.45 164.61 C 496.76 166.28 483.59 173.24 475.46 184.53 C 464.19 199.74 462.21 219.68 463.68 238.02 C 464.99 254.06 471.17 270.63 484.21 280.77 C 497.55 291.44 515.73 293.39 532.16 291.21 C 546.05 289.30 559.16 281.67 566.95 269.91 C 577.54 254.30 579.03 234.49 577.34 216.21 C 575.75 200.73 569.49 184.96 556.94 175.17 C 544.00 164.78 526.44 162.74 510.45 164.61 Z" />
<path fill="#3715e7" opacity="1.00" d=" M 311.26 162.34 C 321.74 162.37 332.22 162.32 342.69 162.36 C 357.99 205.62 373.65 248.76 388.96 292.01 C 379.05 292.01 369.14 292.07 359.23 291.97 C 356.37 283.03 353.47 274.11 350.50 265.21 C 334.74 265.23 318.98 265.18 303.23 265.23 C 300.28 274.01 297.51 282.85 294.58 291.62 C 284.83 292.58 274.85 291.75 265.01 292.02 C 280.41 248.79 295.91 205.59 311.26 162.34 M 271.33 287.59 C 278.09 287.59 284.85 287.63 291.61 287.56 C 294.32 278.67 297.20 269.83 300.00 260.97 C 317.90 261.01 335.79 260.87 353.68 261.05 C 356.56 269.94 359.63 278.77 362.67 287.61 C 369.31 287.58 375.94 287.62 382.58 287.58 C 368.17 247.27 353.77 206.96 339.39 166.63 C 331.11 166.65 322.84 166.66 314.57 166.63 C 300.07 206.92 285.82 247.30 271.33 287.59 Z" />
<path fill="#3715e7" opacity="1.00" d=" M 517.15 179.14 C 527.85 178.34 539.44 180.96 547.18 188.81 C 556.02 197.49 559.17 210.19 559.89 222.19 C 560.49 233.36 559.62 244.95 555.19 255.34 C 551.61 263.72 544.95 270.97 536.35 274.24 C 527.45 277.61 517.50 277.76 508.34 275.38 C 499.65 273.05 492.18 266.94 487.90 259.06 C 481.64 247.82 480.77 234.52 481.41 221.93 C 481.97 210.06 485.26 197.53 493.94 188.93 C 500.00 182.73 508.62 179.68 517.15 179.14 M 513.49 183.55 C 505.63 184.82 498.31 189.23 493.80 195.82 C 487.42 204.83 485.80 216.20 485.56 226.98 C 485.58 235.25 486.36 243.68 489.30 251.48 C 491.97 258.50 496.62 265.03 503.25 268.77 C 511.25 273.43 521.08 273.75 529.97 272.03 C 540.54 269.85 548.75 261.23 552.13 251.22 C 556.13 239.35 556.43 226.44 554.49 214.14 C 552.88 204.17 548.32 194.06 539.72 188.25 C 532.12 182.99 522.39 182.32 513.49 183.55 Z" />
<path fill="#3715e7" opacity="1.00" d=" M 304.75 246.19 C 311.90 224.26 318.82 202.25 326.01 180.34 C 333.56 202.28 341.10 224.22 348.59 246.17 C 333.98 246.22 319.36 246.20 304.75 246.19 M 323.26 202.19 C 319.04 215.39 314.89 228.61 310.64 241.80 C 321.22 241.80 331.80 241.80 342.38 241.80 C 338.89 231.45 335.59 221.04 332.10 210.69 C 329.94 204.04 327.42 197.48 325.94 190.63 C 325.29 194.54 324.50 198.43 323.26 202.19 Z" />
<path fill="#3715e7" opacity="1.00" d=" M 588.71 323.09 C 589.02 316.39 595.31 310.50 602.06 310.76 C 643.38 310.68 684.71 310.76 726.03 310.73 C 729.55 310.79 733.38 310.67 736.46 312.69 C 741.02 315.36 743.03 320.94 742.81 326.03 C 742.74 352.69 742.85 379.36 742.75 406.03 C 742.70 412.58 737.60 419.01 730.86 419.47 C 719.26 420.16 707.59 418.99 696.01 420.22 C 664.67 420.12 633.33 419.77 601.99 419.59 C 595.50 419.62 589.49 414.49 588.81 407.99 C 588.12 401.01 588.69 393.97 588.52 386.97 C 590.91 386.96 593.31 386.97 595.72 386.97 C 595.91 391.93 594.95 397.28 597.23 401.89 C 599.46 406.18 604.03 409.34 608.99 409.06 C 646.66 409.14 684.33 409.07 722.00 409.09 C 726.46 409.35 730.91 407.02 733.30 403.26 C 735.62 400.03 735.82 395.88 735.82 392.04 C 735.74 372.01 735.87 351.98 735.76 331.95 C 735.86 324.96 730.35 317.85 723.02 317.92 C 685.01 317.81 647.00 317.86 608.99 317.89 C 604.76 317.69 600.71 319.93 598.34 323.37 C 594.32 328.72 596.10 335.80 595.73 341.99 C 593.32 342.01 590.91 342.02 588.50 342.04 C 588.65 335.72 588.20 329.39 588.71 323.09 Z" />
<path fill="#3715e7" opacity="1.00" d=" M 95.48 387.14 C 100.83 387.15 106.19 387.17 111.55 387.13 C 111.55 387.81 111.55 389.19 111.55 389.87 C 109.24 389.86 106.94 389.85 104.64 389.83 C 104.67 395.84 104.61 401.86 104.69 407.88 C 104.11 407.87 102.94 407.87 102.36 407.87 C 102.46 401.85 102.37 395.84 102.42 389.83 C 100.12 389.85 97.82 389.85 95.52 389.86 C 95.51 389.18 95.49 387.82 95.48 387.14 Z" />
<path fill="#3715e7" opacity="1.00" d=" M 131.51 387.17 C 132.07 387.14 133.21 387.08 133.78 387.05 C 133.74 394.02 133.74 400.99 133.78 407.96 C 133.21 407.92 132.08 407.85 131.51 407.81 C 131.58 400.93 131.58 394.05 131.51 387.17 Z" />
<path fill="#3715e7" opacity="1.00" d=" M 157.01 387.05 C 158.56 387.12 160.10 387.19 161.65 387.28 C 161.15 389.12 159.27 388.77 157.77 388.94 C 157.53 390.25 157.31 391.56 157.10 392.89 C 158.48 393.15 159.83 393.54 161.16 394.05 C 159.86 394.43 158.56 394.78 157.26 395.09 C 157.24 399.34 157.24 403.60 157.26 407.85 C 156.65 407.85 155.42 407.83 154.80 407.83 C 154.82 403.58 154.81 399.33 154.80 395.08 C 154.05 394.83 152.55 394.32 151.80 394.06 C 152.88 393.52 153.96 392.99 155.04 392.47 C 154.99 390.42 155.27 388.35 157.01 387.05 Z" />
<path fill="#3715e7" opacity="1.00" d=" M 197.09 387.26 C 197.97 387.19 199.72 387.04 200.60 386.97 C 199.53 388.16 198.48 389.38 197.45 390.60 C 196.91 390.74 195.84 391.00 195.30 391.13 C 195.90 389.84 196.50 388.55 197.09 387.26 Z" />
<path fill="#3715e7" opacity="1.00" d=" M 239.92 388.00 C 244.60 385.46 252.47 387.91 252.01 394.09 C 250.63 393.91 249.71 393.02 249.04 391.86 C 248.14 391.14 247.24 390.43 246.34 389.73 C 244.44 389.93 242.34 389.59 240.68 390.75 C 236.63 393.01 236.52 398.86 238.67 402.47 C 240.39 404.89 243.45 405.41 246.23 405.23 C 247.23 404.58 248.25 403.96 249.27 403.35 C 249.76 402.29 250.24 401.22 250.72 400.17 C 251.31 400.51 252.50 401.19 253.09 401.53 C 251.94 403.48 250.89 405.69 248.80 406.83 C 246.65 408.34 243.90 407.74 241.45 407.90 C 233.21 405.23 232.05 391.78 239.92 388.00 Z" />
<path fill="#3715e7" opacity="1.00" d=" M 272.23 387.06 C 272.81 387.10 273.98 387.17 274.56 387.20 C 274.52 389.89 274.50 392.58 274.35 395.27 C 276.74 392.00 282.20 392.47 284.03 396.03 C 285.96 400.19 284.95 405.91 280.53 408.04 C 278.15 408.03 275.82 407.52 274.16 405.69 C 274.30 406.21 274.59 407.24 274.74 407.76 C 274.11 407.81 272.85 407.90 272.23 407.95 C 272.29 400.99 272.29 394.02 272.23 387.06 M 277.06 395.19 C 273.25 397.39 273.20 404.87 277.82 406.18 C 281.54 406.63 283.37 402.24 282.58 399.13 C 282.78 396.42 279.56 393.71 277.06 395.19 Z" />
<path fill="#3715e7" opacity="1.00" d=" M 288.50 387.18 C 289.07 387.15 290.20 387.09 290.76 387.06 C 290.74 394.02 290.74 400.99 290.77 407.95 C 290.20 407.91 289.07 407.84 288.50 407.80 C 288.58 400.93 288.58 394.05 288.50 387.18 Z" />
<path fill="#3715e7" opacity="1.00" d=" M 336.66 387.16 C 337.27 387.16 338.50 387.15 339.11 387.15 C 338.69 394.04 338.70 400.97 339.13 407.86 C 338.48 407.85 337.18 407.82 336.53 407.81 C 336.60 407.26 336.75 406.15 336.82 405.60 C 334.90 408.56 330.28 408.73 328.10 406.00 C 325.44 402.86 325.83 398.19 327.86 394.82 C 328.77 394.25 329.67 393.67 330.58 393.08 C 332.92 392.92 335.24 393.31 336.75 395.26 C 336.66 392.56 336.67 389.86 336.66 387.16 M 330.58 405.36 C 332.34 407.36 334.89 405.49 336.45 404.23 C 336.78 400.91 337.43 395.85 333.17 394.82 C 327.95 394.49 326.90 402.75 330.58 405.36 Z" />
<path fill="#3715e7" opacity="1.00" d=" M 367.52 387.14 C 372.37 387.16 377.23 387.14 382.09 387.15 C 382.11 387.82 382.14 389.17 382.15 389.84 C 378.02 389.87 373.88 389.86 369.75 389.85 C 369.75 391.62 369.75 393.39 369.75 395.17 C 373.58 395.14 377.41 395.15 381.25 395.14 C 381.25 395.82 381.26 397.17 381.26 397.85 C 377.42 397.85 373.58 397.86 369.74 397.83 C 369.75 400.27 369.75 402.72 369.75 405.17 C 374.01 405.14 378.27 405.16 382.53 405.14 C 382.54 405.82 382.55 407.18 382.56 407.86 C 377.54 407.85 372.53 407.86 367.51 407.86 C 367.58 400.95 367.57 394.04 367.52 387.14 Z" />
<path fill="#3715e7" opacity="1.00" d=" M 509.65 387.23 C 510.21 387.18 511.32 387.06 511.87 387.01 C 511.83 394.02 511.86 401.03 511.85 408.04 C 511.26 407.95 510.07 407.78 509.48 407.70 C 509.58 407.18 509.79 406.15 509.89 405.63 C 508.06 408.09 504.44 408.76 501.99 406.83 C 497.73 403.33 498.37 395.50 503.45 393.02 C 505.81 393.01 508.25 393.18 509.76 395.29 C 509.66 392.60 509.67 389.91 509.65 387.23 M 504.71 406.17 C 506.60 406.62 508.03 405.20 509.44 404.23 C 509.80 401.28 509.87 398.26 508.45 395.57 C 507.23 395.23 506.00 394.96 504.76 394.78 C 500.25 396.67 500.33 404.16 504.71 406.17 Z" />
<path fill="#3715e7" opacity="1.00" d=" M 401.58 389.41 C 402.33 388.89 403.08 388.37 403.85 387.85 C 403.79 389.59 403.75 391.34 403.72 393.10 C 404.57 393.17 406.27 393.32 407.12 393.39 C 406.63 394.89 405.02 394.79 403.76 395.08 C 403.74 398.51 403.75 401.94 403.75 405.37 C 404.75 406.13 407.47 405.95 407.10 407.63 C 405.82 407.77 404.53 407.88 403.25 407.96 C 402.85 407.53 402.06 406.66 401.66 406.23 C 401.53 402.48 401.54 398.73 401.55 394.99 C 400.90 394.78 399.59 394.37 398.94 394.16 C 401.34 393.48 401.91 391.65 401.58 389.41 Z" />
<path fill="#3715e7" opacity="1.00" d=" M 450.56 389.48 C 451.32 388.92 452.09 388.37 452.87 387.83 C 452.79 389.42 452.73 391.01 452.68 392.61 C 453.97 393.05 455.27 393.52 456.57 394.00 C 455.28 394.46 454.00 394.92 452.72 395.37 C 452.75 398.75 452.75 402.14 452.75 405.53 C 453.69 405.83 455.57 406.43 456.51 406.73 C 455.49 408.01 453.77 407.81 452.33 408.03 C 451.91 407.57 451.07 406.66 450.66 406.20 C 450.52 402.56 450.51 398.93 450.60 395.30 C 449.93 395.00 448.61 394.41 447.95 394.11 C 450.32 393.47 450.94 391.70 450.56 389.48 Z" />
<path fill="#3715e7" opacity="1.00" d=" M 116.05 395.14 C 119.01 391.83 125.49 392.44 127.32 396.65 C 127.75 398.01 127.87 399.44 128.12 400.86 C 124.17 400.85 120.22 400.83 116.28 400.86 C 116.79 403.09 118.12 404.91 119.81 406.41 C 122.27 406.40 124.56 405.56 125.71 403.26 C 126.34 403.23 127.60 403.16 128.23 403.13 C 126.93 405.47 125.00 408.11 121.98 407.92 C 118.92 408.41 115.88 406.55 114.67 403.76 C 113.90 400.91 113.96 397.43 116.05 395.14 M 116.21 399.11 C 119.44 399.17 122.68 399.17 125.91 399.14 C 125.48 397.33 124.27 395.98 122.91 394.80 C 122.09 394.78 120.45 394.74 119.63 394.72 C 118.21 395.95 117.02 397.40 116.21 399.11 Z" />
<path fill="#3715e7" opacity="1.00" d=" M 139.62 394.63 C 142.20 392.30 146.58 392.58 149.11 394.85 C 150.77 396.38 150.70 398.80 151.13 400.85 C 147.18 400.86 143.24 400.83 139.29 400.85 C 139.74 403.10 141.11 404.90 142.80 406.40 C 145.24 406.33 147.53 405.59 148.70 403.30 C 149.32 403.22 150.55 403.06 151.17 402.98 C 149.94 406.35 146.60 408.75 142.93 407.87 C 136.80 407.17 135.32 398.32 139.62 394.63 M 139.21 399.12 C 142.34 399.17 145.48 399.15 148.61 399.18 C 148.53 398.36 148.44 397.54 148.37 396.73 C 146.97 395.96 145.72 394.52 143.97 394.78 C 141.44 394.54 140.22 397.29 139.21 399.12 Z" />
<path fill="#3715e7" opacity="1.00" d=" M 165.45 393.47 C 168.90 392.14 173.33 393.69 174.44 397.41 C 174.95 400.07 175.16 403.21 173.49 405.53 C 170.71 409.01 164.38 408.77 162.25 404.70 C 160.44 400.94 161.12 395.19 165.45 393.47 M 166.66 406.44 C 168.15 406.10 169.91 406.17 171.01 404.90 C 173.08 402.90 172.33 399.78 172.25 397.24 C 171.34 396.45 170.44 395.67 169.53 394.88 C 168.82 394.84 167.38 394.76 166.66 394.71 C 162.53 397.45 162.92 403.54 166.66 406.44 Z" />
<path fill="#3715e7" opacity="1.00" d=" M 178.29 392.77 C 180.36 392.86 180.98 393.71 180.15 395.34 C 182.41 392.82 186.81 392.04 189.23 394.73 C 190.52 398.96 189.50 403.50 190.01 407.86 C 189.42 407.86 188.25 407.85 187.66 407.85 C 187.74 403.82 187.75 399.78 187.44 395.75 C 185.16 394.57 181.99 394.32 180.87 397.19 C 180.18 400.68 180.55 404.27 180.55 407.81 C 179.97 407.84 178.81 407.91 178.23 407.95 C 178.30 402.89 178.24 397.83 178.29 392.77 Z" />
<path fill="#3715e7" opacity="1.00" d=" M 195.37 393.11 C 195.95 393.11 197.11 393.12 197.69 393.12 C 197.64 398.04 197.64 402.97 197.70 407.89 C 197.12 407.89 195.95 407.88 195.37 407.88 C 195.43 402.95 195.44 398.03 195.37 393.11 Z" />
<path fill="#3715e7" opacity="1.00" d=" M 203.93 394.80 C 206.95 392.68 212.18 391.91 214.59 395.27 C 215.04 399.58 214.64 403.97 215.69 408.22 C 214.41 407.93 213.16 407.52 212.47 406.32 C 209.91 407.74 206.51 408.83 203.85 407.07 C 202.09 405.92 202.48 403.66 202.64 401.90 C 203.58 401.34 204.51 400.79 205.45 400.23 C 207.95 400.16 210.41 399.71 212.80 399.00 C 212.53 397.02 211.43 394.29 208.95 394.79 C 206.05 394.27 205.57 398.50 202.61 398.11 C 203.05 397.00 203.49 395.90 203.93 394.80 M 205.93 401.97 C 205.55 402.48 204.78 403.52 204.40 404.04 C 204.85 404.56 205.75 405.61 206.21 406.14 C 206.96 406.15 208.48 406.16 209.24 406.17 C 210.25 405.51 211.26 404.86 212.28 404.22 C 212.35 403.32 212.49 401.51 212.56 400.61 C 210.46 401.56 208.22 401.99 205.93 401.97 Z" />
<path fill="#3715e7" opacity="1.00" d=" M 256.90 394.82 C 259.92 392.66 265.21 391.90 267.61 395.29 C 268.07 399.51 267.59 403.83 268.68 408.00 C 268.08 407.95 266.88 407.85 266.28 407.80 C 266.12 407.36 265.80 406.48 265.65 406.04 C 264.56 406.65 263.49 407.28 262.42 407.91 C 260.38 407.72 257.85 408.35 256.32 406.60 C 255.03 405.34 255.60 403.44 255.68 401.88 C 256.61 401.33 257.54 400.78 258.47 400.23 C 260.90 400.17 263.29 399.73 265.61 399.05 C 265.53 398.39 265.37 397.08 265.28 396.42 C 264.78 395.97 263.77 395.08 263.27 394.63 C 259.74 393.80 258.82 397.99 255.65 398.15 C 256.06 397.04 256.48 395.92 256.90 394.82 M 258.91 401.98 C 258.53 402.49 257.76 403.50 257.38 404.01 C 257.84 404.54 258.74 405.60 259.20 406.13 C 259.96 406.14 261.49 406.16 262.26 406.17 C 263.26 405.50 264.26 404.84 265.28 404.19 C 265.35 403.30 265.50 401.50 265.58 400.61 C 263.47 401.55 261.21 401.98 258.91 401.98 Z" />
<path fill="#3715e7" opacity="1.00" d=" M 295.70 395.56 C 298.11 392.35 303.31 392.26 306.15 394.91 C 307.78 396.44 307.74 398.82 308.23 400.84 C 304.24 400.85 300.26 400.83 296.28 400.85 C 296.78 403.08 298.13 404.90 299.80 406.41 C 302.27 406.36 304.56 405.53 305.74 403.23 C 306.35 403.19 307.57 403.12 308.19 403.09 C 306.73 407.26 301.77 409.28 297.85 407.23 C 293.64 405.10 293.23 399.14 295.70 395.56 M 296.15 399.12 C 299.41 399.17 302.66 399.17 305.92 399.15 C 305.42 396.87 303.60 394.48 301.02 394.78 C 298.42 394.50 297.29 397.33 296.15 399.12 Z" />
<path fill="#3715e7" opacity="1.00" d=" M 311.96 394.92 C 312.91 394.31 313.87 393.70 314.83 393.08 C 317.45 393.24 321.06 392.49 322.57 395.31 C 323.07 399.53 322.86 403.82 323.67 408.02 C 323.07 407.96 321.88 407.84 321.28 407.78 C 321.13 407.38 320.84 406.58 320.69 406.18 C 318.09 407.68 314.59 408.89 311.85 407.07 C 310.02 405.96 310.53 403.65 310.64 401.89 C 311.57 401.33 312.51 400.78 313.44 400.24 C 315.95 400.17 318.42 399.71 320.83 398.99 C 320.49 397.06 319.44 394.25 316.96 394.80 C 314.07 394.27 313.56 398.49 310.58 398.12 C 311.03 397.05 311.49 395.98 311.96 394.92 M 313.93 401.97 C 313.55 402.48 312.77 403.50 312.39 404.02 C 312.85 404.55 313.76 405.62 314.22 406.15 C 314.99 406.15 316.52 406.16 317.28 406.16 C 318.27 405.51 319.26 404.86 320.26 404.23 C 320.34 403.33 320.49 401.53 320.56 400.62 C 318.46 401.55 316.22 401.98 313.93 401.97 Z" />
<path fill="#3715e7" opacity="1.00" d=" M 346.41 393.48 C 349.87 392.14 354.21 393.68 355.43 397.34 C 355.95 399.82 356.12 402.66 354.85 404.96 C 353.18 407.73 349.44 408.54 346.51 407.57 C 340.89 405.34 340.86 395.81 346.41 393.48 M 344.66 399.98 C 344.32 402.58 345.99 404.69 347.65 406.46 C 353.83 407.18 355.76 397.72 350.74 395.11 C 347.62 393.54 344.51 396.94 344.66 399.98 Z" />
<path fill="#3715e7" opacity="1.00" d=" M 387.86 393.80 C 391.24 392.08 396.13 393.13 397.54 396.97 C 395.61 397.16 394.09 396.29 392.98 394.80 C 390.69 394.50 388.66 395.18 387.21 397.02 C 390.40 399.32 394.53 399.34 397.80 401.50 C 398.74 405.15 395.69 408.32 392.04 407.92 C 388.72 408.53 386.16 406.06 384.96 403.23 C 385.54 403.23 386.72 403.21 387.30 403.20 C 388.56 406.96 395.72 407.63 395.63 402.90 C 392.77 401.21 388.99 401.59 386.46 399.34 C 384.69 397.55 385.90 394.84 387.86 393.80 Z" />
<path fill="#3715e7" opacity="1.00" d=" M 409.47 392.68 C 410.52 393.04 411.29 393.71 411.76 394.71 C 413.12 392.80 415.46 393.16 417.50 393.03 C 417.36 393.60 417.09 394.75 416.95 395.33 C 415.45 395.18 413.57 394.15 412.67 395.96 C 410.76 399.59 411.96 403.95 411.71 407.89 C 411.12 407.89 409.95 407.88 409.37 407.88 C 409.47 402.81 409.35 397.74 409.47 392.68 Z" />
<path fill="#3715e7" opacity="1.00" d=" M 419.25 393.06 C 419.83 393.09 420.98 393.15 421.56 393.18 C 421.46 397.04 421.49 400.91 421.62 404.77 C 423.53 406.65 426.74 406.58 428.23 404.22 C 429.05 400.63 428.60 396.91 428.66 393.26 C 429.21 393.19 430.30 393.03 430.85 392.96 C 430.86 397.98 430.84 403.00 430.86 408.03 C 430.26 407.95 429.05 407.79 428.45 407.71 C 428.59 407.19 428.88 406.17 429.02 405.66 C 427.10 407.35 424.73 408.16 422.18 408.05 C 421.22 407.00 419.67 406.25 419.46 404.73 C 419.01 400.85 419.36 396.94 419.25 393.06 Z" />
<path fill="#3715e7" opacity="1.00" d=" M 437.20 394.19 C 438.72 392.91 440.83 393.24 442.68 392.99 C 444.56 394.16 445.91 395.90 446.62 398.02 C 443.57 398.25 442.66 394.59 439.68 394.40 C 438.01 396.23 436.28 398.42 436.70 401.09 C 436.74 403.65 438.86 407.18 441.86 406.04 C 443.59 405.53 443.84 403.47 444.67 402.13 C 445.26 402.15 446.43 402.18 447.01 402.20 C 446.13 404.52 444.88 406.71 442.69 408.03 C 439.53 408.23 436.03 407.12 434.93 403.84 C 434.11 400.65 434.11 396.20 437.20 394.19 Z" />
<path fill="#3715e7" opacity="1.00" d=" M 458.23 393.07 C 458.81 393.10 459.98 393.16 460.57 393.19 C 460.46 396.99 460.44 400.78 460.68 404.57 C 461.22 405.04 462.28 405.98 462.82 406.45 C 464.39 405.95 466.33 405.74 467.25 404.16 C 468.05 400.58 467.60 396.87 467.65 393.23 C 468.21 393.18 469.31 393.07 469.87 393.02 C 469.83 398.03 469.84 403.04 469.86 408.05 C 469.27 407.97 468.10 407.81 467.51 407.72 C 467.61 407.22 467.82 406.20 467.93 405.69 C 466.04 407.46 463.63 408.14 461.10 408.02 C 460.01 406.86 458.29 405.91 458.38 404.09 C 458.11 400.42 458.32 396.74 458.23 393.07 Z" />
<path fill="#3715e7" opacity="1.00" d=" M 474.41 392.79 C 475.32 393.15 476.23 393.52 477.15 393.88 C 478.87 393.17 480.73 393.12 482.56 393.02 C 482.37 393.60 481.98 394.77 481.78 395.35 C 480.17 394.93 478.19 394.41 477.39 396.35 C 476.00 400.00 476.83 404.06 476.70 407.89 C 476.12 407.88 474.95 407.87 474.36 407.86 C 474.44 402.83 474.40 397.81 474.41 392.79 Z" />
<path fill="#3715e7" opacity="1.00" d=" M 484.93 394.82 C 487.93 392.64 493.22 391.93 495.61 395.29 C 496.07 399.58 495.57 403.97 496.70 408.20 C 495.41 407.90 494.11 407.58 493.46 406.31 C 490.69 407.94 486.19 409.15 483.95 406.12 C 482.38 403.77 484.04 401.18 486.31 400.16 C 488.79 400.19 491.24 399.78 493.60 399.02 C 493.53 398.36 493.37 397.05 493.29 396.39 C 492.80 395.96 491.81 395.09 491.31 394.66 C 487.74 393.73 486.81 397.98 483.61 398.15 C 484.04 397.04 484.48 395.92 484.93 394.82 M 486.90 401.95 C 486.53 402.46 485.77 403.50 485.40 404.01 C 485.85 404.55 486.74 405.61 487.18 406.14 C 487.96 406.15 489.51 406.16 490.28 406.17 C 491.27 405.50 492.26 404.85 493.27 404.21 C 493.34 403.31 493.48 401.50 493.56 400.60 C 491.46 401.58 489.20 402.00 486.90 401.95 Z" />
<path fill="#3715e7" opacity="1.00" d=" M 519.37 393.49 C 521.03 392.98 522.83 393.20 524.56 393.08 C 529.45 395.54 529.81 401.94 527.24 406.24 C 525.03 407.44 522.53 408.43 519.98 407.74 C 513.95 405.89 513.66 395.91 519.37 393.49 M 517.67 399.92 C 517.26 402.55 518.97 404.67 520.64 406.45 C 526.79 407.18 528.75 397.78 523.79 395.13 C 520.71 393.53 517.51 396.86 517.67 399.92 Z" />
<path fill="#3715e7" opacity="1.00" d=" M 219.65 405.19 C 220.62 405.15 221.59 405.12 222.57 405.10 C 222.50 406.81 222.44 408.54 222.37 410.27 C 221.44 410.97 220.50 411.66 219.55 412.35 C 220.20 411.12 220.87 409.91 221.56 408.71 C 221.07 408.38 220.10 407.74 219.61 407.42 C 219.62 406.86 219.64 405.75 219.65 405.19 Z" />
<path fill="#3715e7" opacity="1.00" d=" M 587.41 425.38 C 590.88 424.59 594.47 424.90 598.01 424.85 C 623.35 424.98 648.68 424.44 674.02 424.70 C 696.01 424.50 717.99 425.04 739.98 424.85 C 747.35 424.22 753.99 430.67 753.87 437.99 C 753.91 444.15 755.20 451.16 751.28 456.47 C 748.60 460.40 743.68 462.14 739.06 461.94 C 710.69 462.14 682.33 461.96 653.97 462.03 C 632.64 461.92 611.30 462.26 589.98 461.78 C 583.06 461.49 577.63 454.82 577.93 448.05 C 578.06 443.02 577.15 437.72 579.04 432.92 C 580.54 429.36 583.62 426.36 587.41 425.38 M 695.39 434.46 C 695.39 436.69 695.39 438.93 695.40 441.17 C 711.57 441.11 727.74 441.10 743.91 441.17 C 743.87 438.92 743.87 436.67 743.86 434.43 C 727.70 434.50 711.54 434.46 695.39 434.46 M 695.38 444.36 C 695.35 445.03 695.29 446.38 695.26 447.05 C 711.47 447.27 727.68 447.14 743.89 447.12 C 743.90 446.44 743.93 445.07 743.95 444.38 C 727.76 444.20 711.57 444.25 695.38 444.36 Z" />
</g>
<g id="#e71413ff">
<path fill="#e71413" opacity="1.00" d=" M 414.43 161.99 C 416.87 161.92 419.31 161.97 421.75 162.09 C 422.91 163.60 424.07 165.10 425.22 166.61 C 425.11 230.86 425.16 295.11 425.19 359.35 C 481.13 359.37 537.06 359.35 592.99 359.36 C 595.02 359.24 597.11 359.88 598.29 361.65 C 601.91 365.90 599.37 374.62 593.04 373.91 C 538.00 373.92 482.97 373.93 427.94 373.91 C 422.76 373.67 416.86 375.32 412.78 371.16 C 412.09 369.16 411.05 367.20 411.12 365.04 C 411.12 298.72 411.11 232.39 411.13 166.07 C 412.24 164.72 413.34 163.36 414.43 161.99 Z" />
<path fill="#e71413" opacity="1.00" d=" M 206.92 345.11 C 207.59 345.11 208.94 345.10 209.61 345.10 C 209.62 354.10 209.62 363.11 209.62 372.11 C 208.99 372.03 207.72 371.87 207.09 371.78 C 206.60 362.91 206.99 354.00 206.92 345.11 Z" />
<path fill="#e71413" opacity="1.00" d=" M 273.28 346.81 C 273.92 346.56 275.20 346.07 275.83 345.82 C 276.22 346.28 276.99 347.21 277.37 347.67 C 277.33 348.01 277.23 348.69 277.19 349.03 C 276.67 349.36 275.65 350.03 275.13 350.36 C 273.91 349.51 273.41 348.23 273.28 346.81 Z" />
<path fill="#e71413" opacity="1.00" d=" M 163.42 349.96 C 164.10 349.95 165.46 349.92 166.14 349.90 C 166.15 351.90 166.15 353.89 166.15 355.90 C 166.85 355.91 168.23 355.93 168.93 355.94 C 168.92 356.47 168.90 357.52 168.89 358.04 C 168.20 358.05 166.82 358.08 166.12 358.10 C 166.18 362.71 166.16 367.33 166.14 371.94 C 165.46 371.94 164.10 371.94 163.42 371.94 C 163.41 367.44 163.39 362.95 163.44 358.46 C 162.03 357.99 160.64 357.50 159.26 356.99 C 160.63 356.48 162.02 356.00 163.42 355.55 C 163.41 353.68 163.41 351.82 163.42 349.96 Z" />
<path fill="#e71413" opacity="1.00" d=" M 100.23 353.11 C 100.80 353.12 101.94 353.13 102.51 353.13 C 102.48 360.04 102.47 366.95 102.53 373.86 C 101.95 373.87 100.78 373.89 100.20 373.90 C 100.24 366.97 100.22 360.04 100.23 353.11 Z" />
<path fill="#e71413" opacity="1.00" d=" M 113.79 355.96 C 114.43 355.95 115.72 355.92 116.36 355.91 C 116.36 356.56 116.37 357.87 116.37 358.52 C 119.44 355.33 125.75 354.70 127.95 359.13 C 128.77 363.37 128.15 367.77 128.31 372.07 C 127.66 372.06 126.34 372.05 125.68 372.05 C 125.58 368.21 125.96 364.35 125.45 360.54 C 124.37 357.15 120.37 358.08 117.74 358.64 C 115.60 362.72 116.53 367.41 116.41 371.82 C 115.75 371.89 114.42 372.05 113.76 372.13 C 113.76 366.74 113.74 361.35 113.79 355.96 Z" />
<path fill="#e71413" opacity="1.00" d=" M 139.75 361.06 C 139.14 357.60 143.19 355.63 146.09 355.96 C 148.26 356.01 149.89 357.48 151.38 358.86 C 150.80 359.06 149.64 359.45 149.06 359.65 C 147.41 357.45 141.50 357.13 142.64 360.97 C 145.33 362.90 149.74 362.57 151.27 365.92 C 152.06 368.62 149.76 371.36 147.15 371.82 C 144.13 372.81 141.13 371.15 139.02 369.09 C 139.55 368.62 140.62 367.68 141.15 367.21 C 142.43 368.56 143.76 370.40 145.92 369.95 C 148.15 370.18 149.30 367.79 148.17 366.00 C 145.42 364.29 141.58 364.03 139.75 361.06 Z" />
<path fill="#e71413" opacity="1.00" d=" M 181.61 356.85 C 183.90 355.29 186.66 356.10 189.11 356.75 C 189.44 357.24 190.12 358.23 190.46 358.73 C 190.24 356.38 191.83 355.88 193.74 355.85 C 193.79 361.20 193.73 366.54 193.78 371.89 C 193.18 371.95 191.98 372.09 191.38 372.15 C 191.33 371.58 191.25 370.43 191.20 369.86 C 188.54 371.31 185.38 373.05 182.37 371.47 C 176.39 369.27 176.01 359.71 181.61 356.85 M 182.68 358.62 C 179.33 361.07 179.51 366.84 182.67 369.39 C 184.53 370.13 186.67 370.16 188.57 369.54 C 190.57 368.39 190.84 365.94 191.53 363.96 C 190.78 362.05 190.43 359.68 188.48 358.59 C 186.67 357.77 184.49 357.88 182.68 358.62 Z" />
<path fill="#e71413" opacity="1.00" d=" M 225.57 356.86 C 227.88 355.30 230.64 356.12 233.11 356.73 C 233.43 357.23 234.08 358.24 234.40 358.74 C 234.32 356.47 235.79 355.83 237.74 355.85 C 237.77 361.34 237.81 366.83 237.70 372.31 C 236.13 372.28 235.06 371.58 234.93 369.94 C 232.37 371.42 229.26 373.01 226.34 371.45 C 220.38 369.26 220.03 359.74 225.57 356.86 M 227.33 358.36 C 223.44 360.12 223.45 366.12 226.16 368.94 C 229.01 371.05 234.38 370.14 234.93 366.10 C 236.73 361.46 232.17 356.22 227.33 358.36 Z" />
<path fill="#e71413" opacity="1.00" d=" M 253.30 357.22 C 256.14 355.42 259.60 355.87 262.69 356.71 C 262.69 357.68 262.70 358.66 262.72 359.65 C 260.20 357.70 256.03 357.17 253.82 359.84 C 250.85 362.65 252.10 368.45 256.01 369.74 C 258.58 370.41 261.14 369.48 263.48 368.47 C 263.90 371.80 260.32 371.95 257.97 372.09 C 255.17 372.08 252.24 370.82 250.73 368.38 C 248.59 364.78 249.44 359.32 253.30 357.22 Z" />
<path fill="#e71413" opacity="1.00" d=" M 274.04 355.86 C 274.68 355.92 275.96 356.02 276.60 356.07 C 276.58 361.33 276.57 366.58 276.61 371.84 C 275.94 371.90 274.60 372.04 273.93 372.11 C 273.94 366.69 273.82 361.27 274.04 355.86 Z" />
<path fill="#e71413" opacity="1.00" d=" M 295.20 356.16 C 299.94 354.99 306.16 358.69 305.77 364.00 C 306.05 369.85 298.62 373.89 293.63 371.19 C 290.00 369.80 287.69 365.52 288.85 361.75 C 289.88 358.97 292.39 356.94 295.20 356.16 M 294.38 358.59 C 290.66 360.48 290.12 366.20 293.47 368.71 C 297.14 371.91 303.56 368.89 303.40 363.98 C 303.40 359.50 298.32 356.57 294.38 358.59 Z" />
<path fill="#e71413" opacity="1.00" d=" M 317.78 355.94 C 318.43 355.94 319.73 355.95 320.37 355.95 C 320.38 356.59 320.38 357.87 320.38 358.51 C 323.49 355.28 329.76 354.75 332.04 359.18 C 332.64 363.40 332.20 367.69 332.33 371.94 C 331.66 371.94 330.33 371.93 329.66 371.92 C 329.58 368.11 329.96 364.27 329.44 360.49 C 328.29 357.18 324.37 358.07 321.75 358.63 C 319.58 362.72 320.54 367.44 320.41 371.86 C 319.76 371.93 318.44 372.06 317.78 372.12 C 317.74 366.72 317.74 361.33 317.78 355.94 Z" />
<path fill="#e71413" opacity="1.00" d=" M 344.36 360.33 C 346.25 356.19 351.95 354.63 355.69 357.21 C 358.36 358.79 358.67 362.15 359.40 364.86 C 354.88 365.32 350.34 365.01 345.82 365.25 C 346.47 367.69 348.23 370.15 351.04 369.94 C 353.55 370.47 355.42 368.68 357.32 367.40 C 357.94 367.77 358.55 368.17 359.15 368.60 C 356.49 370.84 353.09 373.04 349.46 371.75 C 344.52 370.76 342.17 364.64 344.36 360.33 M 345.91 362.79 C 349.52 362.91 353.14 362.91 356.76 362.79 C 355.97 360.62 354.93 357.83 352.09 358.08 C 348.80 357.27 346.78 360.05 345.91 362.79 Z" />
<path fill="#e71413" opacity="1.00" d=" M 369.78 361.07 C 369.14 358.46 371.64 356.65 373.87 356.11 C 376.68 355.31 379.49 356.77 381.31 358.86 C 380.75 359.06 379.62 359.46 379.05 359.66 C 377.41 357.40 371.47 357.17 372.64 360.99 C 375.37 362.85 379.65 362.59 381.29 365.87 C 382.35 370.00 377.48 372.91 373.89 371.95 C 371.94 371.62 370.45 370.30 369.01 369.07 C 369.54 368.60 370.61 367.67 371.15 367.21 C 372.44 368.56 373.77 370.43 375.94 369.95 C 378.05 370.23 379.42 367.73 378.17 366.08 C 375.50 364.21 371.55 364.12 369.78 361.07 Z" />
</g>
</svg>
