<?xml version="1.0" encoding="UTF-8" standalone="no"?><!-- Generator: Gravit.io --><svg xmlns="http://www.w3.org/2000/svg" xmlns:xlink="http://www.w3.org/1999/xlink" style="isolation:isolate" viewBox="0 0 659.371 303.21" width="659.371pt" height="303.21pt"><defs><clipPath id="_clipPath_xs5vXgjyPED7SkVxOnU9N5ty2BfNpDSC"><rect width="659.371" height="303.21"/></clipPath></defs><g clip-path="url(#_clipPath_xs5vXgjyPED7SkVxOnU9N5ty2BfNpDSC)"><g><path d=" M 14.101 30.158 C 21.941 16.798 35.851 7.128 51.281 5.078 C 66.031 3.188 81.931 4.658 94.851 12.568 C 104.581 18.528 111.021 28.788 113.791 39.718 C 107.891 39.788 102.001 39.748 96.111 39.738 C 93.611 33.648 89.791 27.888 84.051 24.438 C 74.101 18.198 61.371 17.918 50.311 21.018 C 38.751 24.298 29.971 34.218 26.491 45.518 C 22.731 57.458 22.351 70.378 24.601 82.658 C 26.581 93.658 32.251 104.358 41.641 110.728 C 50.611 116.748 62.071 118.348 72.581 116.468 C 83.311 114.588 92.711 107.028 97.191 97.138 C 99.511 92.158 100.441 86.658 100.771 81.208 C 90.831 80.728 80.871 81.068 70.911 80.968 C 70.891 76.378 70.911 71.788 70.911 67.208 C 85.811 67.178 100.711 67.188 115.611 67.198 C 115.611 87.718 115.601 108.228 115.621 128.748 C 112.311 128.768 109.001 128.768 105.701 128.758 C 104.331 122.548 103.061 116.318 101.671 110.108 C 94.441 120.668 83.601 129.228 70.761 131.458 C 58.531 133.268 45.451 132.158 34.521 125.998 C 18.401 117.258 8.351 99.868 5.861 82.018 C 3.501 64.518 4.981 45.648 14.101 30.158 Z " fill="rgb(255,255,255)"/><path d=" M 415.741 5.778 C 432.151 3.838 450.281 6.118 463.261 17.198 C 476.711 28.358 482.341 46.208 483.051 63.168 C 483.971 81.238 481.171 100.818 469.151 115.098 C 459.121 127.458 442.891 133.358 427.251 133.108 C 412.081 133.648 396.041 129.268 385.221 118.158 C 373.241 106.148 368.841 88.698 368.551 72.178 C 368.091 55.318 371.141 37.318 382.101 23.918 C 390.261 13.598 402.791 7.378 415.741 5.778 Z  M 422.381 20.318 C 413.371 20.848 404.291 24.318 398.181 31.148 C 389.531 40.508 386.801 53.718 386.531 66.098 C 386.221 77.978 387.431 90.448 393.551 100.898 C 397.981 108.698 405.621 114.618 414.361 116.748 C 423.531 118.938 433.461 118.698 442.261 115.148 C 450.811 111.668 457.311 104.258 460.751 95.808 C 464.991 85.358 465.801 73.788 465.101 62.628 C 464.311 50.638 460.941 37.948 451.911 29.458 C 444.161 21.978 432.851 19.538 422.381 20.318 Z " fill="rgb(255,255,255)"/><path d=" M 176.591 128.758 C 191.071 88.468 205.331 48.088 219.831 7.798 C 228.101 7.828 236.371 7.818 244.651 7.798 C 259.031 48.128 273.431 88.438 287.841 128.748 C 281.201 128.778 274.561 128.758 267.931 128.778 C 264.891 119.928 261.831 111.088 258.921 102.208 C 241.031 102.058 223.151 102.168 205.261 102.138 C 202.411 111.018 199.651 119.918 196.781 128.788 C 190.051 128.738 183.321 128.778 176.591 128.758 Z  M 210.011 87.358 C 224.621 87.368 239.241 87.388 253.861 87.348 C 246.361 65.388 238.831 43.448 231.271 21.508 C 224.081 43.428 217.161 65.428 210.011 87.358 Z " fill="rgb(255,255,255)"/><path d=" M 111.151 243.228 C 113.441 243.048 115.701 242.638 117.891 241.928 C 117.791 242.788 117.611 244.508 117.521 245.378 C 116.511 246.018 115.521 246.668 114.521 247.328 C 113.761 247.328 112.241 247.318 111.481 247.318 C 111.021 246.788 110.111 245.728 109.651 245.198 C 110.021 244.708 110.781 243.718 111.151 243.228 Z " fill="rgb(255,255,255)"/></g><g><path d=" M 38.291 4.168 C 52.291 -0.782 67.761 -1.202 82.141 2.268 C 95.431 5.548 107.651 14.118 114.091 26.348 C 117.041 31.758 118.671 37.768 119.841 43.788 C 110.721 43.848 101.601 43.778 92.481 43.818 C 90.441 37.108 86.491 30.678 80.211 27.218 C 72.441 22.688 62.851 22.528 54.251 24.298 C 46.381 26.068 39.401 31.128 35.151 37.968 C 29.261 47.178 27.841 58.428 27.881 69.138 C 28.021 81.198 30.761 94.078 39.371 103.058 C 45.851 110.198 55.771 113.458 65.271 113.018 C 74.831 113.218 84.401 108.528 89.921 100.678 C 93.281 96.178 94.831 90.668 95.771 85.218 C 85.921 85.158 76.081 85.208 66.231 85.188 C 66.221 77.718 66.221 70.238 66.231 62.768 C 84.251 62.768 102.271 62.768 120.291 62.768 C 120.291 86.238 120.291 109.718 120.291 133.188 C 114.241 133.198 108.201 133.188 102.151 133.178 C 100.771 128.058 99.641 122.818 100.011 117.478 C 94.271 127.568 83.511 133.988 72.191 135.738 C 56.911 138.128 40.351 135.858 27.381 127.028 C 14.211 118.068 5.291 103.598 2.091 88.098 C -1.179 72.328 -0.709 55.638 4.181 40.248 C 9.461 23.978 22.041 9.958 38.291 4.168 Z  M 14.101 30.158 C 4.981 45.648 3.501 64.518 5.861 82.018 C 8.351 99.868 18.401 117.258 34.521 125.998 C 45.451 132.158 58.531 133.268 70.761 131.458 C 83.601 129.228 94.441 120.668 101.671 110.108 C 103.061 116.318 104.331 122.548 105.701 128.758 C 109.001 128.768 112.311 128.768 115.621 128.748 C 115.601 108.228 115.611 87.718 115.611 67.198 C 100.711 67.188 85.811 67.178 70.911 67.208 C 70.911 71.788 70.891 76.378 70.911 80.968 C 80.871 81.068 90.831 80.728 100.771 81.208 C 100.441 86.658 99.511 92.158 97.191 97.138 C 92.711 107.028 83.311 114.588 72.581 116.468 C 62.071 118.348 50.611 116.748 41.641 110.728 C 32.251 104.358 26.581 93.658 24.601 82.658 C 22.351 70.378 22.731 57.458 26.491 45.518 C 29.971 34.218 38.751 24.298 50.311 21.018 C 61.371 17.918 74.101 18.198 84.051 24.438 C 89.791 27.888 93.611 33.648 96.111 39.738 C 102.001 39.748 107.891 39.788 113.791 39.718 C 111.021 28.788 104.581 18.528 94.851 12.568 C 81.931 4.658 66.031 3.188 51.281 5.078 C 35.851 7.128 21.941 16.798 14.101 30.158 Z " fill="rgb(55,21,231)"/><path d=" M 419.541 1.448 C 436.531 0.098 454.981 3.718 467.791 15.648 C 480.091 26.628 485.911 43.088 487.241 59.178 C 488.621 77.598 486.731 97.388 476.121 113.078 C 467.871 125.578 454.041 133.848 439.301 136.058 C 421.931 138.748 402.741 136.818 388.211 126.168 C 375.871 117.308 368.391 102.988 365.771 88.248 C 362.971 72.348 363.391 55.658 368.321 40.218 C 372.951 25.698 383.481 12.898 397.561 6.728 C 404.471 3.588 411.991 1.978 419.541 1.448 Z  M 415.741 5.778 C 402.791 7.378 390.261 13.598 382.101 23.918 C 371.141 37.318 368.091 55.318 368.551 72.178 C 368.841 88.698 373.241 106.148 385.221 118.158 C 396.041 129.268 412.081 133.648 427.251 133.108 C 442.891 133.358 459.121 127.458 469.151 115.098 C 481.171 100.818 483.971 81.238 483.051 63.168 C 482.341 46.208 476.711 28.358 463.261 17.198 C 450.281 6.118 432.151 3.838 415.741 5.778 Z " fill="rgb(55,21,231)"/><path d=" M 216.521 3.508 C 227.001 3.538 237.471 3.498 247.941 3.518 C 263.271 46.768 278.881 89.918 294.231 133.148 C 284.311 133.208 274.401 133.228 264.481 133.138 C 261.641 124.198 258.721 115.278 255.771 106.378 C 240.011 106.388 224.251 106.358 208.491 106.398 C 205.521 115.198 202.781 124.088 199.791 132.878 C 189.991 133.598 180.101 133.038 170.261 133.128 C 185.721 89.938 201.161 46.738 216.521 3.508 Z  M 176.591 128.758 C 183.321 128.778 190.051 128.738 196.781 128.788 C 199.651 119.918 202.411 111.018 205.261 102.138 C 223.151 102.168 241.031 102.058 258.921 102.208 C 261.831 111.088 264.891 119.928 267.931 128.778 C 274.561 128.758 281.201 128.778 287.841 128.748 C 273.431 88.438 259.031 48.128 244.651 7.798 C 236.371 7.818 228.101 7.828 219.831 7.798 C 205.331 48.088 191.071 88.468 176.591 128.758 Z " fill="rgb(55,21,231)"/><path d=" M 422.381 20.318 C 432.851 19.538 444.161 21.978 451.911 29.458 C 460.941 37.948 464.311 50.638 465.101 62.628 C 465.801 73.788 464.991 85.358 460.751 95.808 C 457.311 104.258 450.811 111.668 442.261 115.148 C 433.461 118.698 423.531 118.938 414.361 116.748 C 405.621 114.618 397.981 108.698 393.551 100.898 C 387.431 90.448 386.221 77.978 386.531 66.098 C 386.801 53.718 389.531 40.508 398.181 31.148 C 404.291 24.318 413.371 20.848 422.381 20.318 Z  M 418.661 24.738 C 410.841 26.008 403.551 30.418 399.071 36.988 C 392.491 46.288 390.941 58.058 390.811 69.168 C 390.951 80.268 392.541 91.988 399.121 101.268 C 403.601 107.848 410.871 112.308 418.701 113.598 C 425.761 114.528 433.221 114.458 439.901 111.708 C 449.101 108.138 455.401 99.468 458.111 90.228 C 461.401 78.698 461.641 66.388 459.631 54.608 C 457.941 44.888 453.391 35.118 445.031 29.448 C 437.391 24.158 427.611 23.468 418.661 24.738 Z " fill="rgb(55,21,231)"/><path d=" M 210.011 87.358 C 217.161 65.428 224.081 43.428 231.271 21.508 C 238.831 43.448 246.361 65.388 253.861 87.348 C 239.241 87.388 224.621 87.368 210.011 87.358 Z  M 228.541 43.288 C 224.321 56.518 220.151 69.758 215.901 82.968 C 226.481 82.968 237.061 82.978 247.641 82.958 C 244.151 72.628 240.861 62.238 237.371 51.908 C 235.211 45.258 232.721 38.688 231.201 31.848 C 230.541 35.708 229.771 39.568 228.541 43.288 Z " fill="rgb(55,21,231)"/><path d=" M 501.341 153.208 C 505.371 151.408 509.951 151.968 514.251 151.888 C 554.261 151.948 594.281 151.808 634.291 151.958 C 641.681 151.408 647.961 157.898 648.011 165.128 C 648.101 192.148 648.031 219.168 648.051 246.188 C 648.391 253.078 643.251 260.168 636.101 260.648 C 624.521 261.298 612.871 260.188 601.311 261.358 C 580.941 261.528 560.571 260.898 540.211 261.098 C 528.921 260.568 517.631 261.068 506.351 260.698 C 500.171 260.378 494.741 255.318 494.071 249.158 C 493.371 242.178 493.951 235.138 493.781 228.138 C 496.171 228.128 498.571 228.128 500.971 228.138 C 501.171 233.888 499.901 240.568 503.991 245.308 C 506.371 248.468 510.251 250.388 514.231 250.228 C 551.921 250.308 589.611 250.238 627.301 250.258 C 631.731 250.508 636.161 248.188 638.541 244.458 C 640.871 241.208 641.081 237.058 641.081 233.208 C 641.001 213.178 641.131 193.148 641.021 173.108 C 641.111 166.138 635.641 159.038 628.321 159.088 C 590.321 158.978 552.311 159.028 514.311 159.068 C 510.071 158.848 505.981 161.078 503.601 164.548 C 499.591 169.898 501.351 176.968 500.991 183.158 C 498.581 183.178 496.161 183.188 493.761 183.208 C 493.901 176.898 493.461 170.578 493.971 164.288 C 494.041 159.508 497.431 155.548 501.341 153.208 Z " fill="rgb(55,21,231)"/><path d=" M 0.721 228.308 C 6.081 228.318 11.451 228.338 16.811 228.298 C 16.811 228.988 16.801 230.358 16.801 231.048 C 14.501 231.028 12.201 231.018 9.901 230.998 C 9.931 237.018 9.871 243.038 9.951 249.058 C 9.371 249.048 8.201 249.038 7.621 249.038 C 7.711 243.018 7.631 237.008 7.681 230.998 C 5.391 231.018 3.101 231.028 0.811 231.038 C 0.781 230.128 0.751 229.218 0.721 228.308 Z " fill="rgb(55,21,231)"/><path d=" M 36.771 228.348 C 37.331 228.308 38.461 228.238 39.031 228.208 C 39.011 235.178 38.991 242.148 39.041 249.128 C 38.471 249.088 37.341 249.018 36.781 248.978 C 36.841 242.108 36.841 235.228 36.771 228.348 Z " fill="rgb(55,21,231)"/><path d=" M 60.821 229.698 C 62.221 227.548 65.141 228.578 67.221 228.458 C 66.001 229.708 64.351 230.198 62.731 230.648 C 62.621 231.848 62.521 233.048 62.431 234.258 C 63.371 234.348 65.251 234.528 66.191 234.628 C 65.201 235.658 63.831 236.018 62.511 236.408 C 62.501 240.608 62.501 244.818 62.521 249.028 C 61.901 249.018 60.671 248.998 60.061 248.988 C 60.081 244.768 60.071 240.538 60.071 236.318 C 59.301 236.028 57.761 235.458 56.991 235.168 C 57.691 234.908 59.101 234.368 59.801 234.098 C 60.101 232.618 60.341 231.128 60.821 229.698 Z " fill="rgb(55,21,231)"/><path d=" M 102.371 228.418 C 103.241 228.348 104.971 228.208 105.841 228.138 C 104.771 229.348 103.711 230.578 102.671 231.808 C 102.151 231.928 101.101 232.158 100.571 232.278 C 101.181 230.988 101.781 229.708 102.371 228.418 Z " fill="rgb(55,21,231)"/><path d=" M 145.221 229.178 C 149.981 226.508 158.061 229.278 157.211 235.618 C 156.071 234.878 155.081 233.968 154.231 232.908 C 150.991 229.408 144.621 230.838 143.051 235.298 C 142.141 238.558 142.351 242.888 145.361 245.028 C 147.061 246.428 149.371 246.228 151.421 246.468 C 152.461 245.778 153.501 245.118 154.551 244.468 C 155.091 243.338 155.621 242.218 156.151 241.088 C 156.641 241.538 157.611 242.438 158.101 242.888 C 156.681 247.808 151.441 249.848 146.701 249.108 C 138.501 246.358 137.271 232.928 145.221 229.178 Z " fill="rgb(55,21,231)"/><path d=" M 177.491 228.228 C 178.071 228.258 179.251 228.328 179.831 228.368 C 179.781 230.978 179.741 233.588 179.611 236.208 C 181.641 234.258 184.891 233.448 187.331 235.148 C 190.401 236.938 190.421 241.028 189.921 244.128 C 189.631 246.498 187.451 247.858 185.821 249.308 C 183.451 249.188 181.211 248.468 179.301 247.048 C 179.491 247.508 179.861 248.448 180.051 248.918 C 179.411 248.968 178.131 249.078 177.491 249.128 C 177.551 242.158 177.551 235.188 177.491 228.228 Z  M 182.371 236.328 C 179.541 237.808 179.331 241.438 179.871 244.228 C 180.431 246.578 183.651 248.498 185.701 246.688 C 188.411 245.048 188.131 241.488 187.581 238.818 C 187.011 236.818 184.271 235.098 182.371 236.328 Z " fill="rgb(55,21,231)"/><path d=" M 193.771 228.338 C 194.331 228.318 195.461 228.258 196.021 228.238 C 196.001 235.198 196.001 242.158 196.031 249.118 C 195.461 249.078 194.331 249.008 193.771 248.978 C 193.831 242.098 193.831 235.218 193.771 228.338 Z " fill="rgb(55,21,231)"/><path d=" M 241.901 228.408 C 242.451 228.348 243.541 228.218 244.091 228.158 C 244.321 235.168 244.291 242.158 244.101 249.178 C 243.521 249.108 242.351 248.988 241.761 248.918 C 241.881 248.468 242.101 247.558 242.221 247.108 C 239.681 249.658 235.931 249.458 233.131 247.438 C 231.171 243.888 230.951 239.598 233.021 236.038 C 233.991 235.438 234.941 234.818 235.901 234.208 C 238.161 234.128 240.361 234.618 242.041 236.228 C 241.941 233.618 241.931 231.018 241.901 228.408 Z  M 235.901 246.568 C 237.631 248.538 240.061 246.478 241.761 245.518 C 241.981 242.148 242.741 237.018 238.401 235.968 C 233.181 235.718 232.171 243.978 235.901 246.568 Z " fill="rgb(55,21,231)"/><path d=" M 272.781 228.308 C 277.641 228.328 282.491 228.308 287.351 228.318 C 287.371 228.988 287.401 230.338 287.411 231.008 C 283.281 231.028 279.141 231.028 275.011 231.018 C 275.011 232.788 275.011 234.558 275.011 236.338 C 278.841 236.308 282.671 236.318 286.511 236.308 C 286.511 236.988 286.521 238.348 286.521 239.028 C 282.681 239.018 278.841 239.028 275.001 238.998 C 275.011 241.438 275.011 243.888 275.011 246.338 C 279.271 246.308 283.531 246.328 287.791 246.308 C 287.801 246.988 287.811 248.348 287.821 249.028 C 282.811 249.018 277.791 249.018 272.781 249.028 C 272.841 242.118 272.831 235.208 272.781 228.308 Z " fill="rgb(55,21,231)"/><path d=" M 414.901 228.418 C 415.451 228.348 416.571 228.208 417.121 228.138 C 417.101 235.168 417.121 242.188 417.111 249.218 C 416.511 249.128 415.301 248.938 414.691 248.838 C 414.841 248.358 415.141 247.408 415.291 246.928 C 413.501 248.628 411.171 249.238 408.761 249.218 C 404.141 246.478 403.421 240.468 405.981 236.058 C 406.951 235.448 407.931 234.828 408.901 234.218 C 411.191 234.078 413.371 234.638 415.051 236.268 C 414.941 233.648 414.931 231.038 414.901 228.418 Z  M 410.171 247.328 C 411.921 247.688 413.301 246.238 414.751 245.518 C 414.991 242.158 415.741 237.058 411.451 235.968 C 405.601 235.698 405.061 245.708 410.171 247.328 Z " fill="rgb(55,21,231)"/><path d=" M 306.941 230.528 C 307.651 230.018 308.371 229.518 309.091 229.008 C 309.051 230.718 309.021 232.428 309.001 234.148 C 309.941 234.338 311.821 234.728 312.771 234.928 C 311.541 235.488 310.281 236.008 309.031 236.518 C 309.001 239.868 309.011 243.218 309.011 246.568 C 310.341 247.118 311.671 247.678 313.001 248.258 C 311.561 248.668 310.091 248.978 308.641 249.298 C 308.201 248.818 307.341 247.858 306.911 247.378 C 306.791 243.648 306.811 239.918 306.801 236.188 C 306.161 235.998 304.871 235.598 304.221 235.408 C 306.531 234.628 307.061 232.718 306.941 230.528 Z " fill="rgb(55,21,231)"/><path d=" M 355.731 230.658 C 356.521 230.108 357.321 229.558 358.131 229.018 C 358.051 230.588 357.991 232.158 357.931 233.738 C 359.241 234.218 360.551 234.698 361.861 235.208 C 360.571 235.608 359.291 235.998 358.011 236.378 C 358.011 239.768 358.011 243.158 357.991 246.558 C 359.321 247.098 360.661 247.648 362.001 248.228 C 360.581 248.658 359.131 248.988 357.701 249.338 C 357.251 248.848 356.361 247.858 355.911 247.358 C 355.791 243.738 355.781 240.118 355.851 236.498 C 355.151 236.148 353.761 235.448 353.061 235.108 C 353.751 234.838 355.141 234.318 355.831 234.048 C 355.791 232.918 355.761 231.788 355.731 230.658 Z " fill="rgb(55,21,231)"/><path d=" M 21.851 235.798 C 24.451 233.498 28.801 233.748 31.361 236.008 C 32.981 237.568 32.981 239.968 33.491 242.008 C 29.481 242.018 25.461 241.998 21.441 242.028 C 22.311 244.268 23.421 247.408 26.341 247.368 C 28.541 247.868 29.841 245.778 31.101 244.408 C 31.731 244.408 32.991 244.398 33.621 244.388 C 31.911 247.388 28.921 249.968 25.221 249.028 C 19.061 248.388 17.581 239.508 21.851 235.798 Z  M 21.371 240.278 C 24.691 240.328 28.011 240.338 31.341 240.298 C 30.401 238.258 29.001 235.538 26.291 235.958 C 23.701 235.638 22.611 238.578 21.371 240.278 Z " fill="rgb(55,21,231)"/><path d=" M 44.371 236.278 C 47.031 233.308 52.301 233.578 54.861 236.548 C 55.961 238.138 56.031 240.168 56.511 241.998 C 52.481 242.028 48.451 241.998 44.421 242.028 C 45.191 244.148 46.431 246.038 47.991 247.678 C 50.421 247.418 52.741 246.658 54.061 244.468 C 54.691 244.398 55.941 244.278 56.561 244.208 C 55.131 246.908 52.691 249.688 49.281 249.078 C 42.791 249.478 40.341 240.498 44.371 236.278 Z  M 44.351 240.278 C 47.651 240.338 50.951 240.338 54.251 240.308 C 53.461 238.128 51.961 235.558 49.241 235.958 C 46.681 235.648 45.601 238.598 44.351 240.278 Z " fill="rgb(55,21,231)"/><path d=" M 70.701 234.638 C 74.181 233.318 78.631 234.868 79.721 238.628 C 80.211 241.308 80.411 244.458 78.701 246.778 C 75.891 250.138 69.701 249.938 67.561 245.938 C 65.681 242.178 66.361 236.378 70.701 234.638 Z  M 71.521 236.388 C 67.571 238.878 68.521 244.708 71.731 247.428 C 72.571 247.398 74.261 247.348 75.111 247.318 C 77.891 245.038 77.941 241.468 77.571 238.178 C 75.851 236.998 73.671 234.958 71.521 236.388 Z " fill="rgb(55,21,231)"/><path d=" M 83.551 233.918 C 84.651 234.318 85.761 234.728 86.861 235.138 C 89.431 233.868 92.301 234.198 94.741 235.598 C 95.281 240.098 95.101 244.648 95.121 249.178 C 94.571 249.118 93.471 249.008 92.921 248.948 C 92.981 244.898 93.011 240.848 92.711 236.818 C 90.431 235.938 87.201 235.428 86.171 238.348 C 85.411 241.828 85.821 245.438 85.811 248.978 C 85.231 249.018 84.071 249.088 83.501 249.118 C 83.541 244.058 83.511 238.988 83.551 233.918 Z " fill="rgb(55,21,231)"/><path d=" M 100.641 234.268 C 101.221 234.278 102.371 234.288 102.951 234.288 C 102.901 239.208 102.901 244.138 102.961 249.068 C 102.381 249.058 101.211 249.048 100.631 249.048 C 100.691 244.118 100.701 239.198 100.641 234.268 Z " fill="rgb(55,21,231)"/><path d=" M 109.171 235.888 C 112.261 233.988 117.571 232.978 119.851 236.528 C 120.251 240.838 120.091 245.198 120.881 249.478 C 119.651 249.038 118.511 248.438 117.611 247.488 C 116.621 248.008 115.631 248.528 114.651 249.078 C 112.641 248.878 110.161 249.488 108.621 247.818 C 107.401 246.548 107.881 244.658 107.801 243.088 C 108.761 242.528 109.721 241.988 110.701 241.458 C 113.101 241.228 115.471 240.808 117.821 240.278 C 117.771 239.498 117.661 237.928 117.611 237.148 C 116.071 236.598 114.281 235.358 112.641 236.238 C 111.111 237.418 109.781 238.888 107.921 239.568 C 108.331 238.338 108.741 237.108 109.171 235.888 Z  M 111.151 243.228 C 110.781 243.718 110.021 244.708 109.651 245.198 C 110.111 245.728 111.021 246.788 111.481 247.318 C 112.241 247.318 113.761 247.328 114.521 247.328 C 115.521 246.668 116.511 246.018 117.521 245.378 C 117.611 244.508 117.791 242.788 117.891 241.928 C 115.701 242.638 113.441 243.048 111.151 243.228 Z " fill="rgb(55,21,231)"/><path d=" M 162.131 235.918 C 165.221 233.958 170.511 232.998 172.851 236.478 C 173.251 240.858 173.151 245.288 173.841 249.658 C 172.731 248.998 171.631 248.338 170.561 247.618 C 168.031 248.908 164.721 249.928 162.131 248.258 C 160.351 247.138 160.861 244.868 160.821 243.108 C 161.771 242.548 162.721 241.998 163.691 241.458 C 166.111 241.238 168.501 240.818 170.871 240.268 C 170.791 239.598 170.621 238.258 170.541 237.588 C 170.011 237.118 168.971 236.158 168.441 235.678 C 165.341 235.748 163.581 238.488 160.931 239.608 C 161.321 238.368 161.721 237.138 162.131 235.918 Z  M 164.141 243.248 C 163.761 243.728 163.001 244.688 162.631 245.168 C 163.091 245.698 164.011 246.758 164.471 247.298 C 165.221 247.308 166.711 247.348 167.451 247.358 C 168.471 246.688 169.501 246.018 170.531 245.348 C 170.621 244.498 170.801 242.778 170.891 241.918 C 168.701 242.628 166.431 243.048 164.141 243.248 Z " fill="rgb(55,21,231)"/><path d=" M 200.141 238.188 C 201.731 233.968 207.541 233.048 210.911 235.648 C 212.961 237.068 212.951 239.818 213.571 241.998 C 209.511 242.018 205.461 241.998 201.401 242.028 C 202.231 244.128 203.441 246.028 204.981 247.678 C 207.411 247.418 209.731 246.638 211.061 244.438 C 211.681 244.388 212.931 244.278 213.551 244.218 C 212.121 246.978 209.601 249.738 206.161 249.078 C 200.661 249.358 197.971 242.638 200.141 238.188 Z  M 201.321 240.288 C 204.661 240.338 208.011 240.338 211.351 240.298 C 210.421 238.238 208.981 235.528 206.261 235.958 C 203.671 235.648 202.611 238.618 201.321 240.288 Z " fill="rgb(55,21,231)"/><path d=" M 215.631 239.418 C 216.621 237.348 217.741 234.858 220.271 234.378 C 222.811 234.198 226.361 233.758 227.791 236.458 C 228.441 240.668 228.251 244.968 228.871 249.188 C 228.281 249.128 227.121 249.008 226.541 248.948 C 226.371 248.518 226.051 247.658 225.881 247.228 C 224.781 247.848 223.691 248.478 222.611 249.118 C 220.601 248.888 218.131 249.468 216.601 247.798 C 215.351 246.568 215.921 244.648 215.791 243.098 C 216.751 242.538 217.701 241.998 218.671 241.468 C 221.211 241.238 223.721 240.768 226.211 240.188 C 225.731 237.208 223.501 235.298 220.431 235.908 C 219.181 237.538 217.911 239.328 215.631 239.418 Z  M 219.171 243.228 C 218.791 243.718 218.021 244.688 217.631 245.168 C 218.101 245.708 219.021 246.778 219.481 247.318 C 220.241 247.328 221.761 247.328 222.521 247.338 C 223.511 246.678 224.511 246.028 225.511 245.378 C 225.601 244.518 225.791 242.798 225.891 241.938 C 223.701 242.628 221.451 243.038 219.171 243.228 Z " fill="rgb(55,21,231)"/><path d=" M 251.651 234.658 C 253.771 234.058 256.421 233.868 258.261 235.348 C 263.471 238.958 261.461 249.698 254.301 249.088 C 246.681 249.618 245.121 237.288 251.651 234.658 Z  M 252.711 247.438 C 253.561 247.418 255.261 247.368 256.111 247.348 C 259.541 244.428 259.781 238.738 256.021 235.988 C 255.221 235.968 253.611 235.928 252.801 235.908 C 248.931 238.758 249.191 244.408 252.711 247.438 Z " fill="rgb(55,21,231)"/><path d=" M 290.981 239.308 C 290.321 232.718 301.331 232.568 302.901 238.318 C 300.971 238.198 299.361 237.278 298.051 235.928 C 295.741 235.718 293.671 236.438 292.661 238.638 C 296.141 240.088 299.881 240.848 303.181 242.728 C 303.811 246.338 300.991 249.488 297.311 249.078 C 293.961 249.718 291.541 247.158 290.121 244.488 C 290.811 244.448 292.191 244.368 292.881 244.318 C 293.141 244.928 293.671 246.138 293.941 246.748 C 296.551 247.468 301.111 248.018 300.961 244.058 C 297.801 242.258 292.841 242.898 290.981 239.308 Z " fill="rgb(55,21,231)"/><path d=" M 314.781 233.638 C 315.511 234.268 316.251 234.908 316.991 235.558 C 318.821 234.048 321.151 234.298 323.361 234.438 C 322.211 235.978 320.351 236.038 318.611 236.148 C 315.891 239.918 317.171 244.758 316.971 249.068 C 316.381 249.058 315.221 249.048 314.631 249.048 C 314.721 243.908 314.581 238.768 314.781 233.638 Z " fill="rgb(55,21,231)"/><path d=" M 324.521 234.218 C 325.091 234.248 326.241 234.318 326.811 234.348 C 326.731 238.288 326.751 242.228 326.891 246.168 C 329.021 247.498 331.981 247.868 333.481 245.388 C 334.321 241.808 333.861 238.068 333.931 234.418 C 334.471 234.348 335.561 234.208 336.101 234.138 C 336.131 239.158 336.111 244.178 336.121 249.208 C 335.491 249.108 334.231 248.928 333.601 248.828 C 333.861 248.348 334.371 247.378 334.621 246.888 C 332.451 248.348 330.001 249.238 327.381 249.338 C 322.591 245.778 325.131 239.248 324.521 234.218 Z " fill="rgb(55,21,231)"/><path d=" M 340.561 237.438 C 341.861 234.598 345.231 234.218 347.971 234.048 C 349.801 235.428 351.221 237.218 351.951 239.428 C 349.031 239.308 347.971 235.548 345.001 235.928 C 340.941 238.228 340.801 245.298 345.131 247.358 C 347.921 248.138 349.011 245.228 350.041 243.298 C 350.611 243.328 351.771 243.388 352.351 243.418 C 351.341 245.678 350.001 247.788 348.001 249.298 C 346.121 248.948 343.961 249.218 342.401 247.918 C 339.151 245.548 339.261 240.828 340.561 237.438 Z " fill="rgb(55,21,231)"/><path d=" M 363.491 234.238 C 364.071 234.268 365.231 234.318 365.811 234.348 C 365.731 238.128 365.721 241.918 365.921 245.698 C 366.481 246.198 367.621 247.208 368.191 247.708 C 369.661 247.038 371.571 246.848 372.491 245.338 C 373.331 241.758 372.861 238.028 372.921 234.388 C 373.471 234.338 374.581 234.238 375.131 234.188 C 375.091 239.208 375.101 244.218 375.121 249.238 C 374.511 249.138 373.301 248.938 372.691 248.838 C 372.851 248.378 373.171 247.448 373.331 246.988 C 371.251 248.448 368.871 249.248 366.331 249.308 C 361.591 245.748 364.161 239.238 363.491 234.238 Z " fill="rgb(55,21,231)"/><path d=" M 379.741 233.678 C 380.491 234.268 381.241 234.868 381.971 235.488 C 383.871 234.108 386.191 234.268 388.411 234.468 C 386.511 236.408 382.361 235.718 382.131 239.068 C 381.681 242.378 381.941 245.728 381.961 249.058 C 381.371 249.048 380.211 249.038 379.631 249.038 C 379.711 243.918 379.601 238.798 379.741 233.678 Z " fill="rgb(55,21,231)"/><path d=" M 388.811 239.568 C 389.561 237.368 390.671 234.828 393.261 234.388 C 395.831 234.188 399.421 233.778 400.851 236.498 C 401.291 240.718 401.001 244.998 401.891 249.178 C 401.291 249.128 400.101 249.008 399.501 248.958 C 399.341 248.518 399.021 247.648 398.861 247.208 C 397.781 247.828 396.711 248.468 395.651 249.108 C 393.591 248.898 391.101 249.458 389.531 247.778 C 388.431 246.468 388.871 244.658 388.801 243.108 C 389.751 242.548 390.721 241.998 391.691 241.458 C 394.211 241.228 396.711 240.758 399.181 240.188 C 398.801 237.388 396.771 235.628 393.931 235.688 C 392.411 237.218 391.021 239.028 388.811 239.568 Z  M 392.141 243.198 C 391.771 243.698 391.021 244.678 390.641 245.168 C 391.101 245.708 392.001 246.778 392.461 247.318 C 393.221 247.318 394.761 247.338 395.521 247.338 C 396.511 246.678 397.511 246.018 398.521 245.358 C 398.611 244.498 398.791 242.778 398.881 241.918 C 396.701 242.658 394.431 243.068 392.141 243.198 Z " fill="rgb(55,21,231)"/><path d=" M 421.931 236.778 C 423.701 234.128 427.041 234.248 429.861 234.198 C 434.701 236.828 434.971 243.008 432.601 247.438 C 430.011 248.698 426.771 249.978 424.051 248.368 C 420.021 246.188 419.721 240.328 421.931 236.778 Z  M 425.471 236.428 C 420.871 238.998 422.691 248.608 428.571 247.298 C 432.201 245.798 431.801 241.438 431.591 238.218 C 429.871 236.968 427.641 234.938 425.471 236.428 Z " fill="rgb(55,21,231)"/><path d=" M 124.911 246.358 C 125.881 246.318 126.851 246.298 127.831 246.268 C 127.771 247.988 127.701 249.718 127.631 251.448 C 126.691 252.148 125.741 252.858 124.781 253.558 C 125.431 252.298 126.111 251.058 126.801 249.828 C 126.321 249.518 125.351 248.898 124.871 248.598 C 124.881 248.038 124.901 246.918 124.911 246.358 Z " fill="rgb(55,21,231)"/><path d=" M 492.651 266.558 C 500.121 265.428 507.751 266.278 515.291 266.018 C 558.961 265.658 602.631 265.898 646.301 266.068 C 653.311 265.888 659.211 272.268 659.131 279.158 C 659.211 285.498 660.501 292.828 656.161 298.158 C 653.201 302.098 648.051 303.338 643.351 303.138 C 612.331 303.268 581.301 303.148 550.281 303.198 C 532.261 303.118 514.241 303.378 496.221 302.988 C 491.981 303.088 487.751 300.778 485.501 297.198 C 482.091 292.198 483.371 285.848 483.161 280.178 C 482.921 274.228 486.751 268.098 492.651 266.558 Z  M 600.651 275.618 C 600.651 277.858 600.651 280.098 600.661 282.338 C 616.831 282.278 632.991 282.268 649.161 282.338 C 649.131 280.088 649.141 277.848 649.141 275.608 C 632.981 275.648 616.811 275.648 600.651 275.618 Z  M 600.651 285.508 C 600.621 286.198 600.571 287.578 600.551 288.258 C 616.751 288.388 632.951 288.328 649.151 288.298 C 649.161 287.608 649.191 286.238 649.211 285.548 C 633.021 285.368 616.831 285.428 600.651 285.508 Z " fill="rgb(55,21,231)"/></g><g><path d=" M 319.661 3.248 C 322.101 3.248 324.531 3.248 326.971 3.258 C 328.141 4.748 329.321 6.228 330.471 7.738 C 330.381 71.998 330.421 136.258 330.451 200.518 C 386.391 200.538 442.331 200.508 498.281 200.528 C 504.751 199.848 507.331 209.088 503.251 213.188 C 501.891 215.108 499.411 215.078 497.311 215.098 C 439.611 215.068 381.921 215.088 324.221 215.098 C 321.791 215.348 319.981 213.478 318.031 212.378 C 317.361 210.358 316.341 208.398 316.381 206.228 C 316.371 139.908 316.381 73.578 316.381 7.258 C 317.481 5.928 318.561 4.578 319.661 3.248 Z " fill="rgb(231,20,19)"/><path d=" M 112.381 185.978 C 113.011 186.088 114.271 186.308 114.911 186.418 C 114.711 195.288 115.161 204.168 114.701 213.018 C 114.061 213.108 112.781 213.278 112.151 213.368 C 112.251 204.238 111.881 195.098 112.381 185.978 Z " fill="rgb(231,20,19)"/><path d=" M 178.341 188.098 C 179.031 187.828 180.401 187.268 181.081 186.988 C 181.471 187.438 182.231 188.348 182.621 188.798 C 182.581 189.148 182.501 189.838 182.471 190.188 C 181.881 190.558 180.701 191.288 180.111 191.658 C 179.491 190.478 178.891 189.308 178.341 188.098 Z " fill="rgb(231,20,19)"/><path d=" M 68.621 191.308 C 69.321 191.238 70.721 191.108 71.411 191.038 C 71.411 192.908 71.401 194.788 71.381 196.668 C 72.711 197.098 74.091 197.538 74.981 198.708 C 74.081 198.878 72.281 199.208 71.381 199.368 C 71.451 203.948 71.421 208.528 71.401 213.108 C 70.721 213.108 69.361 213.108 68.681 213.108 C 68.671 208.578 68.651 204.048 68.701 199.528 C 67.701 199.248 65.721 198.698 64.721 198.428 C 66.011 197.708 67.341 197.078 68.711 196.528 C 68.681 194.788 68.651 193.048 68.621 191.308 Z " fill="rgb(231,20,19)"/><path d=" M 5.491 194.278 C 6.061 194.278 7.201 194.288 7.771 194.288 C 7.741 201.208 7.731 208.118 7.791 215.028 C 7.201 215.038 6.041 215.058 5.461 215.068 C 5.501 208.138 5.471 201.208 5.491 194.278 Z " fill="rgb(231,20,19)"/><path d=" M 19.041 197.128 C 19.691 197.118 21.001 197.098 21.651 197.078 C 21.631 197.708 21.601 198.948 21.581 199.578 C 24.801 196.698 30.861 195.798 33.161 200.208 C 34.071 204.458 33.401 208.908 33.571 213.238 C 32.921 213.228 31.601 213.218 30.941 213.218 C 30.841 209.358 31.231 205.458 30.691 201.628 C 29.531 198.288 25.601 199.348 22.961 199.748 C 20.991 203.888 21.721 208.538 21.671 212.968 C 21.011 213.058 19.691 213.228 19.021 213.308 C 19.011 207.918 19.011 202.518 19.041 197.128 Z " fill="rgb(231,20,19)"/><path d=" M 47.201 198.068 C 50.351 196.008 54.311 197.458 56.681 199.988 C 56.121 200.188 55.001 200.578 54.441 200.778 C 52.611 199.188 48.331 197.998 47.611 201.218 C 48.751 203.698 52.401 203.538 54.571 204.968 C 57.401 206.128 57.181 210.218 54.851 211.808 C 51.621 214.518 46.991 213.018 44.251 210.318 C 44.781 209.848 45.821 208.888 46.341 208.418 C 48.021 210.688 51.071 212.218 53.631 210.248 C 55.071 205.688 48.981 206.058 46.561 203.898 C 44.021 202.648 44.851 199.018 47.201 198.068 Z " fill="rgb(231,20,19)"/><path d=" M 86.861 198.028 C 89.161 196.438 91.931 197.368 94.411 197.858 C 94.681 198.348 95.221 199.318 95.481 199.808 C 95.751 197.828 97.191 197.078 98.961 196.808 C 99.051 202.418 99.071 208.028 98.941 213.638 C 97.561 213.348 96.521 212.618 96.021 211.278 C 93.441 212.598 90.441 214.188 87.591 212.618 C 81.651 210.418 81.281 200.868 86.861 198.028 Z  M 86.441 201.438 C 84.141 205.068 86.091 211.958 91.261 211.138 C 94.851 211.668 96.171 207.888 96.831 205.118 C 95.981 203.068 95.501 200.258 93.081 199.478 C 90.791 198.918 87.611 198.988 86.441 201.438 Z " fill="rgb(231,20,19)"/><path d=" M 131.671 197.658 C 134.551 196.148 137.831 197.628 140.071 199.578 C 140.091 199.008 140.121 197.848 140.141 197.278 C 140.861 197.258 142.301 197.218 143.021 197.208 C 143.031 202.498 143.031 207.798 143.021 213.098 C 142.391 213.098 141.141 213.118 140.511 213.118 C 140.531 212.458 140.581 211.128 140.601 210.458 C 138.121 212.458 134.751 214.318 131.601 212.608 C 125.291 210.328 125.361 199.878 131.671 197.658 Z  M 131.881 210.498 C 133.731 211.338 135.911 211.308 137.821 210.698 C 139.821 209.548 140.101 207.088 140.821 205.128 C 140.071 202.468 138.761 198.898 135.331 199.218 C 129.171 198.218 127.711 207.388 131.881 210.498 Z " fill="rgb(231,20,19)"/><path d=" M 158.561 198.398 C 161.391 196.568 164.831 197.128 167.921 197.818 C 167.951 198.778 167.981 199.738 168.031 200.698 C 165.561 199.208 161.971 198.308 159.621 200.478 C 156.071 203.098 157.061 209.498 161.251 210.908 C 163.791 211.568 166.311 210.638 168.651 209.718 C 168.481 210.418 168.131 211.818 167.961 212.518 C 164.831 213.158 161.341 213.808 158.471 211.968 C 153.611 209.228 153.631 201.048 158.561 198.398 Z " fill="rgb(231,20,19)"/><path d=" M 179.291 197.038 C 179.931 197.088 181.211 197.188 181.861 197.238 C 181.841 202.528 181.851 207.808 181.851 213.088 C 181.181 213.098 179.851 213.108 179.191 213.118 C 179.191 207.758 179.101 202.398 179.291 197.038 Z " fill="rgb(231,20,19)"/><path d=" M 200.471 197.338 C 205.981 195.878 212.681 201.118 210.851 207.098 C 209.031 214.208 198.141 215.268 194.841 208.758 C 191.901 204.218 195.601 198.368 200.471 197.338 Z  M 199.631 199.768 C 195.931 201.668 195.371 207.368 198.731 209.868 C 202.381 213.088 208.811 210.058 208.661 205.148 C 208.661 200.658 203.581 197.738 199.631 199.768 Z " fill="rgb(231,20,19)"/><path d=" M 223.041 197.098 C 223.701 197.108 225.021 197.118 225.681 197.118 C 225.651 197.728 225.591 198.948 225.561 199.558 C 228.091 197.868 231.211 196.138 234.291 197.618 C 236.091 198.268 237.651 200.068 237.531 202.088 C 237.691 205.808 237.561 209.528 237.581 213.258 C 236.921 213.258 235.591 213.248 234.931 213.238 C 234.841 209.378 235.221 205.478 234.691 201.648 C 233.521 198.308 229.591 199.318 226.951 199.748 C 224.981 203.948 225.741 208.648 225.641 213.128 C 224.991 213.118 223.691 213.108 223.031 213.098 C 223.011 207.768 223.001 202.438 223.041 197.098 Z " fill="rgb(231,20,19)"/><path d=" M 249.651 201.468 C 251.531 197.328 257.281 195.798 261.001 198.408 C 263.591 199.978 263.861 203.298 264.751 205.888 C 260.321 206.448 255.871 206.308 251.431 206.288 C 251.551 207.038 251.801 208.538 251.921 209.288 C 255.101 211.938 259.821 211.678 262.511 208.478 C 262.981 208.718 263.921 209.188 264.391 209.428 C 261.961 211.998 258.431 214.218 254.781 212.928 C 249.791 211.978 247.401 205.788 249.651 201.468 Z  M 251.051 203.908 C 254.771 204.098 258.501 204.138 262.211 203.808 C 261.181 201.288 259.431 198.568 256.261 199.228 C 253.311 198.838 252.221 201.838 251.051 203.908 Z " fill="rgb(231,20,19)"/><path d=" M 275.031 202.228 C 274.381 199.208 277.591 197.388 280.131 197.068 C 282.691 196.828 284.851 198.308 286.651 199.938 C 286.021 200.198 284.761 200.708 284.131 200.968 C 283.521 200.318 282.911 199.678 282.311 199.038 C 280.491 199.368 278.121 199.018 277.371 201.178 C 279.511 204.398 284.821 203.348 286.551 207.048 C 287.591 211.138 282.821 214.018 279.251 213.148 C 277.311 212.748 275.761 211.458 274.241 210.298 C 274.761 209.828 275.821 208.888 276.341 208.408 C 277.741 209.658 279.021 211.608 281.201 211.118 C 283.391 211.358 284.511 209.008 283.491 207.218 C 280.731 205.468 276.861 205.208 275.031 202.228 Z " fill="rgb(231,20,19)"/></g></g></svg>