<?xml version="1.0" encoding="UTF-8" standalone="no"?><!-- Generator: Gravit.io --><svg xmlns="http://www.w3.org/2000/svg" xmlns:xlink="http://www.w3.org/1999/xlink" style="isolation:isolate" viewBox="0 0 659.371 303.21" width="659.371pt" height="303.21pt"><defs><clipPath id="_clipPath_Jdu2WxXh6uHGWDtGP3Ggq7qythLiexWZ"><rect width="659.371" height="303.21"/></clipPath></defs><g clip-path="url(#_clipPath_Jdu2WxXh6uHGWDtGP3Ggq7qythLiexWZ)"><g><path d=" M 14.101 30.158 C 21.941 16.798 35.851 7.128 51.281 5.078 C 66.031 3.188 81.931 4.658 94.851 12.568 C 104.581 18.528 111.021 28.788 113.791 39.718 C 107.891 39.788 102.001 39.748 96.111 39.738 C 93.611 33.648 89.791 27.888 84.051 24.438 C 74.101 18.198 61.371 17.918 50.311 21.018 C 38.751 24.298 29.971 34.218 26.491 45.518 C 22.731 57.458 22.351 70.378 24.601 82.658 C 26.581 93.658 32.251 104.358 41.641 110.728 C 50.611 116.748 62.071 118.348 72.581 116.468 C 83.311 114.588 92.711 107.028 97.191 97.138 C 99.511 92.158 100.441 86.658 100.771 81.208 C 90.831 80.728 80.871 81.068 70.911 80.968 C 70.891 76.378 70.911 71.788 70.911 67.208 C 85.811 67.178 100.711 67.188 115.611 67.198 C 115.611 87.718 115.601 108.228 115.621 128.748 C 112.311 128.768 109.001 128.768 105.701 128.758 C 104.331 122.548 103.061 116.318 101.671 110.108 C 94.441 120.668 83.601 129.228 70.761 131.458 C 58.531 133.268 45.451 132.158 34.521 125.998 C 18.401 117.258 8.351 99.868 5.861 82.018 C 3.501 64.518 4.981 45.648 14.101 30.158 Z " fill="rgb(255,255,255)"/><path d=" M 415.741 5.778 C 432.151 3.838 450.281 6.118 463.261 17.198 C 476.711 28.358 482.341 46.208 483.051 63.168 C 483.971 81.238 481.171 100.818 469.151 115.098 C 459.121 127.458 442.891 133.358 427.251 133.108 C 412.081 133.648 396.041 129.268 385.221 118.158 C 373.241 106.148 368.841 88.698 368.551 72.178 C 368.091 55.318 371.141 37.318 382.101 23.918 C 390.261 13.598 402.791 7.378 415.741 5.778 Z  M 422.381 20.318 C 413.371 20.848 404.291 24.318 398.181 31.148 C 389.531 40.508 386.801 53.718 386.531 66.098 C 386.221 77.978 387.431 90.448 393.551 100.898 C 397.981 108.698 405.621 114.618 414.361 116.748 C 423.531 118.938 433.461 118.698 442.261 115.148 C 450.811 111.668 457.311 104.258 460.751 95.808 C 464.991 85.358 465.801 73.788 465.101 62.628 C 464.311 50.638 460.941 37.948 451.911 29.458 C 444.161 21.978 432.851 19.538 422.381 20.318 Z " fill="rgb(255,255,255)"/><path d=" M 176.591 128.758 C 191.071 88.468 205.331 48.088 219.831 7.798 C 228.101 7.828 236.371 7.818 244.651 7.798 C 259.031 48.128 273.431 88.438 287.841 128.748 C 281.201 128.778 274.561 128.758 267.931 128.778 C 264.891 119.928 261.831 111.088 258.921 102.208 C 241.031 102.058 223.151 102.168 205.261 102.138 C 202.411 111.018 199.651 119.918 196.781 128.788 C 190.051 128.738 183.321 128.778 176.591 128.758 Z  M 210.011 87.358 C 224.621 87.368 239.241 87.388 253.861 87.348 C 246.361 65.388 238.831 43.448 231.271 21.508 C 224.081 43.428 217.161 65.428 210.011 87.358 Z " fill="rgb(255,255,255)"/></g><g><path d=" M 38.291 4.168 C 52.291 -0.782 67.761 -1.202 82.141 2.268 C 95.431 5.548 107.651 14.118 114.091 26.348 C 117.041 31.758 118.671 37.768 119.841 43.788 C 110.721 43.848 101.601 43.778 92.481 43.818 C 90.441 37.108 86.491 30.678 80.211 27.218 C 72.441 22.688 62.851 22.528 54.251 24.298 C 46.381 26.068 39.401 31.128 35.151 37.968 C 29.261 47.178 27.841 58.428 27.881 69.138 C 28.021 81.198 30.761 94.078 39.371 103.058 C 45.851 110.198 55.771 113.458 65.271 113.018 C 74.831 113.218 84.401 108.528 89.921 100.678 C 93.281 96.178 94.831 90.668 95.771 85.218 C 85.921 85.158 76.081 85.208 66.231 85.188 C 66.221 77.718 66.221 70.238 66.231 62.768 C 84.251 62.768 102.271 62.768 120.291 62.768 C 120.291 86.238 120.291 109.718 120.291 133.188 C 114.241 133.198 108.201 133.188 102.151 133.178 C 100.771 128.058 99.641 122.818 100.011 117.478 C 94.271 127.568 83.511 133.988 72.191 135.738 C 56.911 138.128 40.351 135.858 27.381 127.028 C 14.211 118.068 5.291 103.598 2.091 88.098 C -1.179 72.328 -0.709 55.638 4.181 40.248 C 9.461 23.978 22.041 9.958 38.291 4.168 Z  M 14.101 30.158 C 4.981 45.648 3.501 64.518 5.861 82.018 C 8.351 99.868 18.401 117.258 34.521 125.998 C 45.451 132.158 58.531 133.268 70.761 131.458 C 83.601 129.228 94.441 120.668 101.671 110.108 C 103.061 116.318 104.331 122.548 105.701 128.758 C 109.001 128.768 112.311 128.768 115.621 128.748 C 115.601 108.228 115.611 87.718 115.611 67.198 C 100.711 67.188 85.811 67.178 70.911 67.208 C 70.911 71.788 70.891 76.378 70.911 80.968 C 80.871 81.068 90.831 80.728 100.771 81.208 C 100.441 86.658 99.511 92.158 97.191 97.138 C 92.711 107.028 83.311 114.588 72.581 116.468 C 62.071 118.348 50.611 116.748 41.641 110.728 C 32.251 104.358 26.581 93.658 24.601 82.658 C 22.351 70.378 22.731 57.458 26.491 45.518 C 29.971 34.218 38.751 24.298 50.311 21.018 C 61.371 17.918 74.101 18.198 84.051 24.438 C 89.791 27.888 93.611 33.648 96.111 39.738 C 102.001 39.748 107.891 39.788 113.791 39.718 C 111.021 28.788 104.581 18.528 94.851 12.568 C 81.931 4.658 66.031 3.188 51.281 5.078 C 35.851 7.128 21.941 16.798 14.101 30.158 Z " fill="rgb(55,21,231)"/><path d=" M 419.541 1.448 C 436.531 0.098 454.981 3.718 467.791 15.648 C 480.091 26.628 485.911 43.088 487.241 59.178 C 488.621 77.598 486.731 97.388 476.121 113.078 C 467.871 125.578 454.041 133.848 439.301 136.058 C 421.931 138.748 402.741 136.818 388.211 126.168 C 375.871 117.308 368.391 102.988 365.771 88.248 C 362.971 72.348 363.391 55.658 368.321 40.218 C 372.951 25.698 383.481 12.898 397.561 6.728 C 404.471 3.588 411.991 1.978 419.541 1.448 Z  M 415.741 5.778 C 402.791 7.378 390.261 13.598 382.101 23.918 C 371.141 37.318 368.091 55.318 368.551 72.178 C 368.841 88.698 373.241 106.148 385.221 118.158 C 396.041 129.268 412.081 133.648 427.251 133.108 C 442.891 133.358 459.121 127.458 469.151 115.098 C 481.171 100.818 483.971 81.238 483.051 63.168 C 482.341 46.208 476.711 28.358 463.261 17.198 C 450.281 6.118 432.151 3.838 415.741 5.778 Z " fill="rgb(55,21,231)"/><path d=" M 216.521 3.508 C 227.001 3.538 237.471 3.498 247.941 3.518 C 263.271 46.768 278.881 89.918 294.231 133.148 C 284.311 133.208 274.401 133.228 264.481 133.138 C 261.641 124.198 258.721 115.278 255.771 106.378 C 240.011 106.388 224.251 106.358 208.491 106.398 C 205.521 115.198 202.781 124.088 199.791 132.878 C 189.991 133.598 180.101 133.038 170.261 133.128 C 185.721 89.938 201.161 46.738 216.521 3.508 Z  M 176.591 128.758 C 183.321 128.778 190.051 128.738 196.781 128.788 C 199.651 119.918 202.411 111.018 205.261 102.138 C 223.151 102.168 241.031 102.058 258.921 102.208 C 261.831 111.088 264.891 119.928 267.931 128.778 C 274.561 128.758 281.201 128.778 287.841 128.748 C 273.431 88.438 259.031 48.128 244.651 7.798 C 236.371 7.818 228.101 7.828 219.831 7.798 C 205.331 48.088 191.071 88.468 176.591 128.758 Z " fill="rgb(55,21,231)"/><path d=" M 422.381 20.318 C 432.851 19.538 444.161 21.978 451.911 29.458 C 460.941 37.948 464.311 50.638 465.101 62.628 C 465.801 73.788 464.991 85.358 460.751 95.808 C 457.311 104.258 450.811 111.668 442.261 115.148 C 433.461 118.698 423.531 118.938 414.361 116.748 C 405.621 114.618 397.981 108.698 393.551 100.898 C 387.431 90.448 386.221 77.978 386.531 66.098 C 386.801 53.718 389.531 40.508 398.181 31.148 C 404.291 24.318 413.371 20.848 422.381 20.318 Z  M 418.661 24.738 C 410.841 26.008 403.551 30.418 399.071 36.988 C 392.491 46.288 390.941 58.058 390.811 69.168 C 390.951 80.268 392.541 91.988 399.121 101.268 C 403.601 107.848 410.871 112.308 418.701 113.598 C 425.761 114.528 433.221 114.458 439.901 111.708 C 449.101 108.138 455.401 99.468 458.111 90.228 C 461.401 78.698 461.641 66.388 459.631 54.608 C 457.941 44.888 453.391 35.118 445.031 29.448 C 437.391 24.158 427.611 23.468 418.661 24.738 Z " fill="rgb(55,21,231)"/><path d=" M 210.011 87.358 C 217.161 65.428 224.081 43.428 231.271 21.508 C 238.831 43.448 246.361 65.388 253.861 87.348 C 239.241 87.388 224.621 87.368 210.011 87.358 Z  M 228.541 43.288 C 224.321 56.518 220.151 69.758 215.901 82.968 C 226.481 82.968 237.061 82.978 247.641 82.958 C 244.151 72.628 240.861 62.238 237.371 51.908 C 235.211 45.258 232.721 38.688 231.201 31.848 C 230.541 35.708 229.771 39.568 228.541 43.288 Z " fill="rgb(55,21,231)"/><path d=" M 501.341 153.208 C 505.371 151.408 509.951 151.968 514.251 151.888 C 554.261 151.948 594.281 151.808 634.291 151.958 C 641.681 151.408 647.961 157.898 648.011 165.128 C 648.101 192.148 648.031 219.168 648.051 246.188 C 648.391 253.078 643.251 260.168 636.101 260.648 C 624.521 261.298 612.871 260.188 601.311 261.358 C 580.941 261.528 560.571 260.898 540.211 261.098 C 528.921 260.568 517.631 261.068 506.351 260.698 C 500.171 260.378 494.741 255.318 494.071 249.158 C 493.371 242.178 493.951 235.138 493.781 228.138 C 496.171 228.128 498.571 228.128 500.971 228.138 C 501.171 233.888 499.901 240.568 503.991 245.308 C 506.371 248.468 510.251 250.388 514.231 250.228 C 551.921 250.308 589.611 250.238 627.301 250.258 C 631.731 250.508 636.161 248.188 638.541 244.458 C 640.871 241.208 641.081 237.058 641.081 233.208 C 641.001 213.178 641.131 193.148 641.021 173.108 C 641.111 166.138 635.641 159.038 628.321 159.088 C 590.321 158.978 552.311 159.028 514.311 159.068 C 510.071 158.848 505.981 161.078 503.601 164.548 C 499.591 169.898 501.351 176.968 500.991 183.158 C 498.581 183.178 496.161 183.188 493.761 183.208 C 493.901 176.898 493.461 170.578 493.971 164.288 C 494.041 159.508 497.431 155.548 501.341 153.208 Z " fill="rgb(55,21,231)"/><path d=" M 492.651 266.558 C 500.121 265.428 507.751 266.278 515.291 266.018 C 558.961 265.658 602.631 265.898 646.301 266.068 C 653.311 265.888 659.211 272.268 659.131 279.158 C 659.211 285.498 660.501 292.828 656.161 298.158 C 653.201 302.098 648.051 303.338 643.351 303.138 C 612.331 303.268 581.301 303.148 550.281 303.198 C 532.261 303.118 514.241 303.378 496.221 302.988 C 491.981 303.088 487.751 300.778 485.501 297.198 C 482.091 292.198 483.371 285.848 483.161 280.178 C 482.921 274.228 486.751 268.098 492.651 266.558 Z  M 600.651 275.618 C 600.651 277.858 600.651 280.098 600.661 282.338 C 616.831 282.278 632.991 282.268 649.161 282.338 C 649.131 280.088 649.141 277.848 649.141 275.608 C 632.981 275.648 616.811 275.648 600.651 275.618 Z  M 600.651 285.508 C 600.621 286.198 600.571 287.578 600.551 288.258 C 616.751 288.388 632.951 288.328 649.151 288.298 C 649.161 287.608 649.191 286.238 649.211 285.548 C 633.021 285.368 616.831 285.428 600.651 285.508 Z " fill="rgb(55,21,231)"/></g><g><path d=" M 319.661 3.248 C 322.101 3.248 324.531 3.248 326.971 3.258 C 328.141 4.748 329.321 6.228 330.471 7.738 C 330.381 71.998 330.421 136.258 330.451 200.518 C 386.391 200.538 442.331 200.508 498.281 200.528 C 504.751 199.848 507.331 209.088 503.251 213.188 C 501.891 215.108 499.411 215.078 497.311 215.098 C 439.611 215.068 381.921 215.088 324.221 215.098 C 321.791 215.348 319.981 213.478 318.031 212.378 C 317.361 210.358 316.341 208.398 316.381 206.228 C 316.371 139.908 316.381 73.578 316.381 7.258 C 317.481 5.928 318.561 4.578 319.661 3.248 Z " fill="rgb(231,20,19)"/></g></g></svg>