<?xml version="1.0" encoding="UTF-8" ?>
<!DOCTYPE svg PUBLIC "-//W3C//DTD SVG 1.1//EN" "http://www.w3.org/Graphics/SVG/1.1/DTD/svg11.dtd">
<svg width="299pt" height="299pt" viewBox="0 0 299 299" version="1.1" xmlns="http://www.w3.org/2000/svg">
<g id="#0182c8ff">
<path fill="#0182c8" opacity="1.00" d=" M 184.35 30.04 C 194.17 29.97 203.99 30.03 213.82 30.02 C 213.80 60.02 213.77 90.02 213.83 120.03 C 203.95 120.09 194.06 120.07 184.18 120.04 C 182.50 105.90 176.01 92.23 165.24 82.77 C 153.18 71.89 136.29 66.48 120.17 68.68 C 117.45 69.03 114.75 69.51 112.05 69.93 C 123.46 64.22 136.22 60.97 149.04 61.84 C 161.59 62.51 173.89 66.67 184.32 73.67 C 184.38 59.13 184.33 44.58 184.35 30.04 Z" />
<path fill="#0182c8" opacity="1.00" d=" M 85.80 95.88 C 95.61 81.84 112.89 73.43 130.01 74.53 C 147.01 75.26 162.89 85.39 171.40 100.02 C 161.93 92.98 149.69 89.01 137.91 91.48 C 123.09 94.05 110.47 105.64 106.31 120.05 C 96.39 120.03 86.47 120.16 76.55 119.98 C 78.18 111.51 80.65 102.94 85.80 95.88 Z" />
<path fill="#0182c8" opacity="1.00" d=" M 136.47 103.76 C 145.49 100.98 155.89 102.69 163.22 108.77 C 173.35 116.58 177.03 131.55 171.44 143.11 C 166.50 154.70 153.26 161.76 140.88 159.78 C 129.55 158.19 119.74 149.18 117.17 138.04 C 116.20 133.41 116.20 128.53 117.31 123.92 C 119.68 114.50 127.26 106.71 136.47 103.76 Z" />
<path fill="#0182c8" opacity="1.00" d=" M 76.45 142.40 C 86.41 142.45 96.37 142.39 106.33 142.43 C 108.11 160.44 118.64 177.43 134.39 186.47 C 147.45 194.41 163.60 196.03 178.31 192.48 C 164.56 199.93 148.30 202.42 132.92 199.74 C 118.23 197.14 104.47 189.63 94.35 178.68 C 84.90 168.74 78.86 155.84 76.45 142.40 Z" />
<path fill="#0182c8" opacity="1.00" d=" M 184.27 142.40 C 194.08 142.44 203.89 142.39 213.70 142.43 C 212.10 155.03 206.33 167.31 196.53 175.60 C 183.83 186.87 165.29 190.90 149.03 186.06 C 136.34 182.45 125.38 173.60 118.94 162.11 C 125.95 167.89 134.79 171.50 143.92 171.70 C 156.86 172.23 169.86 166.03 177.53 155.58 C 180.57 151.63 182.55 147.03 184.27 142.40 Z" />
<path fill="#0182c8" opacity="1.00" d=" M 148.33 231.37 C 150.80 230.20 153.27 229.04 155.76 227.90 C 155.98 240.61 155.79 253.32 155.86 266.03 C 157.31 266.57 158.75 267.14 160.18 267.74 C 155.83 268.39 151.35 268.51 147.06 267.48 C 145.21 268.10 143.27 269.65 141.27 268.75 C 140.34 267.89 139.78 266.74 139.08 265.72 C 136.31 267.86 132.79 269.94 129.17 268.66 C 125.60 267.76 124.39 262.50 127.21 260.14 C 130.81 257.42 135.33 256.42 139.50 254.92 C 139.29 252.45 139.94 249.08 137.29 247.68 C 135.40 246.44 133.17 247.24 131.26 247.96 C 130.70 249.41 130.61 251.19 129.48 252.35 C 128.40 252.65 127.31 252.90 126.20 253.10 C 126.09 248.61 130.55 246.68 133.95 244.99 C 137.08 243.18 141.88 244.20 143.46 247.59 C 144.13 253.50 143.58 259.48 143.73 265.43 C 146.34 265.54 148.78 266.68 151.40 266.62 C 151.41 255.38 151.62 244.15 151.29 232.91 C 150.30 232.40 149.31 231.88 148.33 231.37 M 130.69 260.74 C 128.76 263.02 131.17 266.76 134.01 266.45 C 136.03 266.17 137.63 264.78 139.35 263.80 C 139.42 261.45 139.42 259.09 139.43 256.73 C 136.38 257.67 132.92 258.25 130.69 260.74 Z" />
<path fill="#0182c8" opacity="1.00" d=" M 173.72 231.40 C 176.17 230.12 178.73 229.07 181.27 227.98 C 181.99 240.47 181.28 252.99 181.65 265.49 C 182.96 265.64 184.27 265.82 185.58 266.01 C 183.10 267.73 180.09 268.27 177.23 269.02 C 177.21 268.15 177.17 266.41 177.15 265.54 C 173.60 268.39 168.51 270.50 164.26 267.79 C 157.06 263.16 157.85 251.35 164.65 246.68 C 168.17 243.79 172.94 243.75 177.18 244.70 C 177.20 240.74 177.17 236.78 176.79 232.83 C 175.76 232.35 174.74 231.87 173.72 231.40 M 167.38 247.27 C 162.01 251.76 162.70 261.92 169.12 265.13 C 171.67 266.23 175.68 265.88 176.89 263.02 C 177.49 257.84 177.27 252.57 176.54 247.41 C 173.70 246.06 170.09 245.15 167.38 247.27 Z" />
<path fill="#0182c8" opacity="1.00" d=" M 37.24 231.93 C 42.17 231.41 47.13 231.74 52.07 231.55 C 57.62 231.35 63.48 232.48 67.82 236.15 C 73.88 240.90 76.11 249.80 72.97 256.85 C 70.58 262.92 64.55 267.07 58.14 267.75 C 51.23 268.46 44.26 268.00 37.32 268.05 C 39.17 266.37 43.07 266.20 42.79 263.00 C 43.01 257.67 42.77 252.34 42.85 247.01 C 42.77 242.57 43.28 238.05 42.10 233.70 C 40.43 233.26 38.77 232.76 37.24 231.93 M 48.17 233.29 C 48.21 243.19 47.99 253.10 48.24 262.99 C 48.10 265.10 50.30 266.12 52.06 266.38 C 57.84 267.05 64.24 264.20 66.68 258.72 C 69.80 251.69 68.98 242.40 63.04 237.08 C 59.02 233.46 53.32 233.05 48.17 233.29 Z" />
<path fill="#0182c8" opacity="1.00" d=" M 83.50 244.72 C 89.50 242.66 97.11 245.46 99.45 251.57 C 102.12 257.85 98.80 265.98 92.30 268.29 C 86.33 270.57 78.62 267.69 76.32 261.55 C 73.71 255.27 76.89 246.92 83.50 244.72 M 85.18 246.15 C 79.74 249.25 79.53 257.13 81.70 262.36 C 82.97 266.15 87.89 269.42 91.47 266.43 C 96.71 261.89 96.44 252.93 92.13 247.84 C 90.55 245.70 87.57 245.28 85.18 246.15 Z" />
<path fill="#0182c8" opacity="1.00" d=" M 106.98 247.76 C 110.12 245.57 113.91 243.07 117.92 244.43 C 120.70 245.23 121.79 248.33 121.84 250.95 C 122.04 255.98 121.81 261.02 121.92 266.05 C 123.33 266.57 124.72 267.11 126.10 267.71 C 121.86 268.46 117.52 268.26 113.26 267.78 C 114.66 267.15 116.07 266.57 117.49 265.99 C 117.48 261.29 117.63 256.59 117.50 251.90 C 117.49 250.20 116.94 248.21 115.19 247.55 C 112.38 246.17 109.53 248.19 106.98 249.25 C 106.90 255.05 106.82 260.85 107.07 266.66 C 108.03 266.77 109.94 267.00 110.90 267.11 C 106.98 269.24 102.16 267.77 97.91 267.68 C 99.42 267.10 100.94 266.56 102.48 266.04 C 102.38 260.72 102.83 255.37 102.26 250.07 C 101.47 248.81 100.12 248.07 99.02 247.12 C 101.46 245.69 104.17 244.88 106.92 244.31 C 106.93 245.17 106.96 246.90 106.98 247.76 Z" />
<path fill="#0182c8" opacity="1.00" d=" M 186.63 251.94 C 185.79 245.54 193.90 242.29 198.97 244.81 C 202.21 245.52 200.80 249.57 201.17 251.89 C 199.29 249.41 197.84 245.37 193.99 245.93 C 190.20 245.53 189.11 251.19 192.28 252.70 C 196.15 255.08 202.66 256.25 202.55 261.99 C 201.99 268.49 193.90 270.45 188.73 268.17 C 185.35 267.29 186.79 262.86 186.45 260.35 C 187.93 262.54 188.82 265.40 191.31 266.67 C 193.29 267.79 195.51 266.70 197.56 266.35 C 197.60 264.56 198.75 262.24 197.03 260.93 C 193.66 257.86 187.27 257.35 186.63 251.94 Z" />
<path fill="#0182c8" opacity="1.00" d=" M 212.40 244.55 C 218.47 242.73 225.90 245.89 227.93 252.10 C 230.48 258.92 226.11 267.51 218.78 268.81 C 212.57 270.11 205.44 266.33 204.01 259.93 C 202.23 253.70 206.02 246.24 212.40 244.55 M 213.18 246.27 C 208.02 249.54 207.86 257.08 209.87 262.25 C 211.06 266.07 215.90 269.31 219.57 266.57 C 224.40 262.75 224.38 255.29 221.97 250.10 C 220.61 246.76 216.60 244.55 213.18 246.27 Z" />
<path fill="#0182c8" opacity="1.00" d=" M 226.70 247.00 C 229.33 245.92 232.04 245.03 234.75 244.14 C 234.76 245.08 234.78 246.95 234.78 247.89 C 237.27 246.27 239.81 244.39 242.86 244.09 C 245.70 243.54 248.91 245.40 249.40 248.35 C 250.55 254.31 249.07 260.44 250.28 266.42 C 251.66 266.85 253.04 267.30 254.41 267.77 C 250.07 268.27 245.69 268.18 241.33 267.95 C 242.53 267.02 243.96 266.51 245.39 266.08 C 245.44 261.06 245.64 256.04 245.41 251.03 C 245.45 249.43 244.44 247.90 242.92 247.40 C 240.08 246.25 237.37 248.30 234.84 249.34 C 234.78 254.89 234.76 260.45 234.85 266.00 C 236.31 266.57 237.75 267.16 239.19 267.79 C 234.96 268.14 230.70 268.24 226.47 267.89 C 227.68 267.10 229.03 266.54 230.37 266.02 C 230.36 260.29 231.12 254.44 229.79 248.80 C 229.02 248.35 227.47 247.45 226.70 247.00 Z" />
<path fill="#0182c8" opacity="1.00" d=" M 254.62 265.87 C 255.83 264.08 257.56 262.95 259.68 263.95 C 259.65 265.18 259.63 266.41 259.61 267.65 C 259.01 267.89 257.80 268.38 257.20 268.63 C 256.33 267.71 255.47 266.79 254.62 265.87 Z" />
</g>
</svg>
