<?xml version="1.0" encoding="UTF-8" standalone="no"?><!-- Generator: Gravit.io --><svg xmlns="http://www.w3.org/2000/svg" xmlns:xlink="http://www.w3.org/1999/xlink" style="isolation:isolate" viewBox="0 0 300 300" width="300pt" height="300pt"><defs><clipPath id="_clipPath_MeJKP9wSRnTJLMiSs2IQKcM7pAvR61NA"><rect width="300" height="300"/></clipPath></defs><g clip-path="url(#_clipPath_MeJKP9wSRnTJLMiSs2IQKcM7pAvR61NA)"><clipPath id="_clipPath_bh8CfR7Wr8t3YrMpidIl4oF4H7KUuEHX"><rect x="0" y="0" width="300" height="300" transform="matrix(1,0,0,1,0,0)" fill="rgb(255,255,255)"/></clipPath><g clip-path="url(#_clipPath_bh8CfR7Wr8t3YrMpidIl4oF4H7KUuEHX)"><g><g><path d=" M 50.525 68 C 83.913 87.235 117.263 106.521 150.638 125.776 C 148.553 127.933 145.725 129.03 143.213 130.58 C 135.923 134.912 128.44 138.909 121.201 143.338 C 120.078 143.971 118.664 144.843 117.418 143.965 C 107.171 138.07 96.924 132.162 86.677 126.253 C 85.495 125.589 84.229 125.085 82.97 124.588 C 82.589 138.231 82.944 151.887 82.796 165.544 C 73.092 171.129 63.219 176.443 53.747 182.415 C 52.733 183.022 51.649 183.52 50.583 184.029 C 50.325 169.179 50.557 154.328 50.486 139.477 C 50.505 115.651 50.428 91.826 50.525 68 Z " fill="rgb(9,151,213)"/><path d=" M 244.34 72.113 C 246.671 70.731 248.918 69.156 251.501 68.226 C 251.624 102.738 251.495 137.243 251.559 171.755 C 251.553 175.81 251.533 179.865 251.455 183.92 C 246.032 181.137 240.937 177.779 235.585 174.88 C 230.083 171.768 224.576 168.668 219.236 165.285 C 219.184 151.629 219.294 137.967 219.171 124.31 C 216.227 125.615 213.47 127.281 210.726 128.946 C 202.416 133.757 194.035 138.451 185.77 143.345 C 184.776 143.771 183.684 144.746 182.561 144.198 C 171.965 138.328 161.576 132.039 150.993 126.131 C 156.133 122.735 161.647 119.959 166.929 116.782 C 192.756 101.937 218.526 86.989 244.34 72.113 Z " fill="rgb(9,151,213)"/></g><g><path d=" M 100.805 199.216 C 103.122 199.138 105.447 199.132 107.765 199.197 C 112.065 210.076 117.198 220.62 121.247 231.591 C 118.729 231.655 116.217 231.649 113.705 231.629 C 112.717 229.189 111.807 226.722 110.664 224.353 C 106.377 224.482 102.064 224.166 97.782 224.501 C 96.265 226.613 95.703 229.273 94.586 231.61 C 92.126 231.642 89.666 231.701 87.213 231.539 C 87.652 230.235 88.091 228.937 88.633 227.685 C 92.772 218.232 96.698 208.688 100.805 199.216 Z  M 100.391 217.999 C 102.942 218.018 105.492 218.018 108.043 217.986 C 106.938 214.777 105.692 211.626 104.259 208.553 C 102.548 211.51 101.463 214.77 100.391 217.999 Z " fill="rgb(14,44,82)"/><path d=" M 50.441 231.597 C 50.563 220.834 50.176 210.051 50.628 199.3 C 53.205 199.21 55.787 199.138 58.364 199.352 C 61.172 203.723 63.651 208.32 66.706 212.53 C 69.644 208.165 72.175 203.536 75.183 199.21 C 77.721 199.248 80.259 199.248 82.796 199.216 C 83.009 207.067 82.738 214.926 82.913 222.783 C 83.164 225.748 83.132 228.724 82.79 231.681 C 80.388 232.042 77.954 232.042 75.558 231.642 C 75.513 225.031 75.726 218.406 75.442 211.794 C 72.026 215.714 69.798 220.498 66.628 224.611 C 63.439 220.426 60.785 215.882 57.757 211.588 C 57.498 218.258 57.724 224.934 57.647 231.603 C 55.245 231.642 52.843 231.642 50.441 231.597 Z " fill="rgb(14,44,82)"/><path d=" M 125.625 199.3 C 130.81 199.152 135.994 199.274 141.179 199.21 C 145.815 199.21 150.948 201.786 152.298 206.493 C 153.208 210.07 152.918 214.274 150.432 217.179 C 149.257 218.509 147.687 219.381 146.209 220.323 C 148.443 224.217 151.42 227.626 153.583 231.565 C 150.768 231.668 147.958 231.636 145.15 231.623 C 142.69 228.297 140.636 224.701 138.086 221.44 C 136.511 221.486 134.929 221.499 133.354 221.505 C 132.604 224.837 133.153 228.292 132.959 231.681 C 130.532 232.056 128.072 232.056 125.644 231.681 C 125.631 220.886 125.683 210.096 125.625 199.3 Z  M 133.276 205.964 C 132.772 208.856 133.005 211.794 133.031 214.712 C 136.227 214.712 139.461 214.99 142.638 214.506 C 146.047 213.402 146.093 207.552 142.638 206.46 C 139.604 205.57 136.388 206.093 133.276 205.964 Z " fill="rgb(14,44,82)"/><path d=" M 158.477 199.274 C 166.658 199.222 174.839 199.19 183.019 199.281 C 183.013 201.502 183.013 203.723 183.013 205.944 C 177.247 205.99 171.481 205.976 165.715 205.944 C 165.651 208.011 165.644 210.076 165.728 212.143 C 170.732 212.181 175.736 212.143 180.747 212.169 C 180.818 214.422 180.811 216.676 180.65 218.922 C 175.652 218.974 170.655 218.864 165.651 218.98 C 165.644 221.073 165.657 223.164 165.689 225.263 C 171.468 225.283 177.253 225.199 183.032 225.315 C 183.097 227.413 183.091 229.512 182.987 231.61 C 179.378 231.507 175.781 232.191 172.178 231.771 C 167.852 231.442 163.52 231.629 159.207 231.881 C 158.135 231.5 158.606 230.099 158.457 229.253 C 158.419 219.258 158.438 209.263 158.477 199.274 Z " fill="rgb(14,44,82)"/><path d=" M 188.831 199.236 C 191.155 199.416 193.686 198.764 195.888 199.597 C 196.301 208.114 195.927 216.662 196.069 225.192 C 201.402 225.257 206.736 225.192 212.069 225.218 C 212.056 227.472 212.282 229.757 211.746 231.972 C 204.108 231.029 196.411 232.624 188.759 231.701 C 188.818 220.879 188.689 210.057 188.831 199.236 Z " fill="rgb(14,44,82)"/><path d=" M 216.395 220.814 C 216.505 213.641 216.15 206.448 216.582 199.287 C 218.92 199.242 221.263 199.229 223.607 199.177 C 223.814 200.359 224.001 201.56 224.001 202.768 C 223.956 210.244 223.969 217.715 223.988 225.192 C 229.328 225.263 234.668 225.16 240.008 225.257 C 239.989 227.381 239.975 229.505 239.975 231.629 C 232.208 231.668 224.446 231.572 216.685 231.675 C 216.091 228.078 216.511 224.43 216.395 220.814 Z " fill="rgb(14,44,82)"/><path d=" M 244.288 199.248 C 246.716 199.222 249.15 199.236 251.579 199.281 C 251.61 210.064 251.579 220.847 251.598 231.629 C 249.144 231.642 246.69 231.636 244.243 231.597 C 244.321 220.814 244.243 210.032 244.288 199.248 Z " fill="rgb(14,44,82)"/></g></g></g></g></svg>