<?xml version="1.0" encoding="UTF-8" standalone="no"?><!-- Generator: Gravit.io --><svg xmlns="http://www.w3.org/2000/svg" xmlns:xlink="http://www.w3.org/1999/xlink" style="isolation:isolate" viewBox="0 0 300 300" width="300pt" height="300pt"><defs><clipPath id="_clipPath_A8HJ6m3Y5lNEOXXQIkI0KpTUf8tyFN1O"><rect width="300" height="300"/></clipPath></defs><g clip-path="url(#_clipPath_A8HJ6m3Y5lNEOXXQIkI0KpTUf8tyFN1O)"><clipPath id="_clipPath_SYG07o6DGmDyZHvl8wSUhIZ6L5fxSp9A"><rect x="0" y="0" width="300" height="300" transform="matrix(1,0,0,1,0,0)" fill="rgb(255,255,255)"/></clipPath><g clip-path="url(#_clipPath_SYG07o6DGmDyZHvl8wSUhIZ6L5fxSp9A)"><g><g><path d=" M 208.079 122.404 C 218.838 114.585 229.248 106.311 239.939 98.401 C 243.343 102.587 246.322 107.093 249.657 111.341 C 239.141 119.638 228.336 127.563 217.828 135.876 C 228.42 143.862 239.232 151.552 249.726 159.667 C 246.261 163.922 243.282 168.542 240.099 173.002 C 229.278 165.183 218.869 156.817 208.086 148.945 C 208.132 155.928 208.064 162.911 208.14 169.894 C 202.076 169.978 196.02 169.917 189.964 169.932 C 190.002 147.084 189.934 124.235 189.994 101.394 C 196.043 101.599 202.099 101.402 208.147 101.546 C 208.048 108.499 208.147 115.451 208.079 122.404 Z " fill="rgb(254,0,0)"/><path d=" M 92.848 101.546 C 99.026 101.182 105.226 101.873 111.381 101.258 C 111.48 102.192 111.548 103.127 111.578 104.061 C 111.632 126.051 111.632 148.049 111.571 170.039 C 97.392 159.614 83.259 149.135 68.966 138.87 C 68.944 149.211 68.906 159.56 69.004 169.902 C 62.758 169.97 56.512 169.932 50.274 169.91 C 50.335 147.091 50.213 124.266 50.327 101.44 C 64.476 112.047 78.639 122.64 92.848 133.163 C 92.879 122.624 92.863 112.085 92.848 101.546 Z " fill="rgb(254,0,0)"/><path d=" M 126.471 111.614 C 133.074 104.631 142.823 100.946 152.39 101.539 C 163.255 101.516 173.703 107.64 179.364 116.85 C 174.326 120.086 169.038 122.913 163.734 125.687 C 161.386 122.518 157.937 120.17 154.023 119.494 C 147.048 118.043 139.472 121.857 136.213 128.133 C 134.184 131.864 133.72 136.438 135.08 140.473 C 137.52 148.148 146.045 153.421 154.001 151.856 C 158.377 151.065 162.169 148.284 164.76 144.736 C 160.186 144.478 155.596 144.789 151.022 144.546 C 150.87 138.733 150.969 132.92 150.961 127.107 C 161.835 127.107 172.716 127.123 183.589 127.1 C 185.671 132.32 185.245 138.216 184.189 143.634 C 181.53 155.328 172.161 165.092 160.74 168.595 C 152.694 171.133 143.743 170.335 136.121 166.802 C 124.465 161.407 116.381 148.923 116.571 136.028 C 116.411 126.986 120.172 118.05 126.471 111.614 Z " fill="rgb(254,0,0)"/></g><g><path d=" M 54.317 183.002 C 57.052 181.224 60.676 181.254 63.708 182.166 C 66.109 182.933 67.242 185.319 68.077 187.5 C 66.193 187.576 64.309 187.599 62.424 187.538 C 61.3 186.14 59.521 185.623 57.827 186.284 C 57.857 186.634 57.918 187.34 57.949 187.697 C 60.684 189.354 64.278 189.096 66.74 191.261 C 68.944 193.108 68.792 196.648 67.09 198.776 C 62.66 203.571 52.645 202.18 51.292 195.212 C 53.253 195.19 55.221 195.197 57.189 195.22 C 57.759 195.851 58.321 196.489 58.891 197.127 C 60.259 197.082 63.04 197.188 62.341 195.076 C 59.734 193.503 56.406 193.67 53.937 191.823 C 51.057 189.779 51.33 184.825 54.317 183.002 Z " fill="rgb(1,1,1)"/><path d=" M 215.981 182.113 C 219.157 181.163 223.032 181.322 225.684 183.526 C 227.242 184.795 227.865 186.778 228.625 188.556 C 226.733 188.609 224.833 188.624 222.941 188.602 C 221.908 186.656 219.013 185.122 217.341 187.226 C 215.312 190.091 215.259 195.805 219.332 196.907 C 220.935 197.013 222.128 195.775 223.306 194.886 C 222.265 194.779 221.224 194.673 220.183 194.574 C 220.244 193.275 220.312 191.968 220.381 190.668 C 223.101 190.592 225.821 190.592 228.541 190.615 C 228.564 194.08 228.557 197.553 228.564 201.025 C 227.052 200.774 224.415 201.899 224.339 199.581 C 220.935 202.355 215.556 202.104 212.524 198.905 C 208.079 194.004 209.454 184.537 215.981 182.113 Z " fill="rgb(1,1,1)"/><path d=" M 234.445 183.184 C 237.097 181.239 240.737 181.254 243.799 182.067 C 246.329 182.713 247.484 185.198 248.578 187.31 C 246.124 187.492 242.918 188.511 241.254 186.079 C 239.992 186.246 237.697 185.524 238.207 187.606 C 240.881 189.331 244.407 189.073 246.937 191.079 C 249.338 192.956 249.255 196.823 247.287 198.981 C 242.728 203.51 233.062 202.074 231.611 195.235 C 233.488 195.19 235.357 195.174 237.234 195.197 C 238.465 196.405 240.167 197.682 241.975 196.892 C 243.032 196.74 243.153 194.627 241.945 194.612 C 239.552 193.677 236.9 193.412 234.666 192.089 C 231.543 190.289 231.55 185.205 234.445 183.184 Z " fill="rgb(1,1,1)"/><path d=" M 71.474 182.166 C 75.615 182.265 79.817 181.778 83.913 182.485 C 88.791 183.602 89.801 190.706 86.078 193.647 C 83.631 195.395 80.44 195.129 77.591 195.266 C 77.606 197.165 77.613 199.072 77.621 200.972 C 75.569 200.964 73.518 200.957 71.466 200.934 C 71.489 194.68 71.466 188.419 71.474 182.166 Z  M 77.636 186.315 C 77.621 187.827 77.613 189.339 77.613 190.851 C 79.551 190.851 81.489 190.547 82.978 189.217 C 82.469 186.626 79.787 186.436 77.636 186.315 Z " fill="rgb(1,1,1)"/><path d=" M 93.198 182.257 C 95.348 182.12 97.499 182.105 99.649 182.158 C 101.837 188.419 104.026 194.68 106.199 200.942 C 104.178 200.957 102.149 200.964 100.12 200.957 C 99.96 200.364 99.626 199.194 99.467 198.601 C 97.499 198.594 95.531 198.578 93.563 198.571 C 93.281 199.376 93 200.189 92.727 201.01 C 90.781 200.964 88.829 200.957 86.883 200.942 C 88.92 194.688 91.412 188.594 93.198 182.257 Z  M 96.488 187.986 C 95.842 190.182 95.257 192.393 94.657 194.597 C 95.865 194.604 97.073 194.604 98.281 194.604 C 97.764 192.378 97.187 190.167 96.488 187.986 Z " fill="rgb(1,1,1)"/><path d=" M 107.734 182.173 C 111.738 182.181 115.75 181.968 119.747 182.28 C 121.928 182.401 124.253 183.815 124.595 186.125 C 125.157 188.419 123.903 190.562 122.383 192.173 C 125.476 194.019 124.412 198.001 125.013 200.98 C 123.014 200.964 121.016 200.957 119.017 200.949 C 118.607 198.852 119.868 194.642 116.662 194.498 C 115.978 194.407 114.618 194.225 113.934 194.133 C 113.85 196.405 113.858 198.677 113.873 200.957 C 111.837 200.957 109.8 200.964 107.772 200.972 C 107.726 194.703 107.794 188.435 107.734 182.173 Z  M 113.881 186.444 C 113.858 187.697 113.835 188.951 113.82 190.205 C 115.545 190.068 118.797 190.866 119.086 188.397 C 118.683 185.988 115.651 186.535 113.881 186.444 Z " fill="rgb(1,1,1)"/><path d=" M 126.905 200.957 C 126.943 194.68 126.905 188.412 126.912 182.135 C 128.956 182.135 131 182.135 133.044 182.143 C 133.029 184.05 133.029 185.965 133.044 187.872 C 134.799 186.041 136.448 184.119 138.074 182.181 C 140.46 182.105 142.838 182.113 145.224 182.135 C 143.097 184.575 140.81 186.877 138.644 189.286 C 141.174 193.123 143.598 197.044 146.037 200.949 C 143.636 200.972 141.243 200.98 138.842 200.964 C 137.254 198.54 135.84 196.01 134.427 193.48 C 132.163 195.304 133.249 198.442 133.052 200.949 C 131 200.957 128.949 200.957 126.905 200.957 Z " fill="rgb(1,1,1)"/><path d=" M 154.107 182.151 C 158.279 182.28 162.526 181.733 166.644 182.538 C 171.31 183.739 172.237 190.577 168.764 193.51 C 166.378 195.433 163.126 195.136 160.254 195.235 C 160.262 197.15 160.239 199.057 160.171 200.972 C 158.165 200.964 156.151 200.964 154.145 200.972 C 154.099 194.696 154.153 188.427 154.107 182.151 Z  M 160.292 186.284 C 160.269 187.789 160.254 189.293 160.254 190.805 C 161.424 190.706 162.61 190.706 163.757 190.441 C 165.185 190.152 164.806 188.435 165.155 187.394 C 163.582 186.816 161.956 186.444 160.292 186.284 Z " fill="rgb(1,1,1)"/><path d=" M 172.959 182.135 C 174.995 182.128 177.039 182.135 179.083 182.158 C 179.053 186.945 179.075 191.725 179.068 196.512 C 182.039 196.504 185.017 196.496 187.996 196.504 C 187.988 197.978 187.966 199.46 187.966 200.942 C 182.958 200.972 177.958 200.964 172.951 200.942 C 172.974 194.673 172.966 188.404 172.959 182.135 Z " fill="rgb(1,1,1)"/><path d=" M 189.425 182.151 C 191.469 182.135 193.513 182.135 195.556 182.151 C 195.625 186.512 195.26 190.896 195.746 195.235 C 196.59 197.454 199.842 197.317 200.86 195.296 C 201.438 190.95 201.103 186.543 201.058 182.173 C 203.064 182.143 205.07 182.135 207.083 182.135 C 207.015 186.277 207.175 190.425 207.007 194.566 C 206.977 197.036 205.617 199.574 203.292 200.577 C 200.184 201.891 196.544 201.876 193.421 200.63 C 190.975 199.665 189.66 196.99 189.523 194.475 C 189.295 190.372 189.508 186.254 189.425 182.151 Z " fill="rgb(1,1,1)"/></g></g></g></g></svg>