<?xml version="1.0" encoding="UTF-8" standalone="no"?><!-- Generator: Gravit.io --><svg xmlns="http://www.w3.org/2000/svg" xmlns:xlink="http://www.w3.org/1999/xlink" style="isolation:isolate" viewBox="0 0 300 300" width="300pt" height="300pt"><defs><clipPath id="_clipPath_2RbstTCAKNEiNdMGGsLDduWTXfQS6Kan"><rect width="300" height="300"/></clipPath></defs><g clip-path="url(#_clipPath_2RbstTCAKNEiNdMGGsLDduWTXfQS6Kan)"><path d=" M 123.908 111.9 L 126.809 111.9 C 136.761 112.324 146.403 117.099 152.726 124.8 C 159.033 117.116 168.641 112.337 178.573 111.9 L 181.861 111.9 C 184.176 112.103 186.5 112.357 188.751 112.954 C 197.462 115.088 205.236 120.705 210.072 128.245 C 208.875 128.255 207.674 128.255 206.477 128.248 C 203.489 124.213 199.597 120.841 195.135 118.527 C 188.124 114.898 179.773 113.924 172.126 115.889 C 164.202 117.85 157.162 122.986 152.726 129.823 C 149.284 124.573 144.362 120.278 138.612 117.733 C 131.745 114.628 123.784 114.058 116.534 116.099 C 109.527 118.02 103.284 122.432 98.975 128.265 C 97.781 128.272 96.587 128.272 95.393 128.258 C 97.117 125.604 99.182 123.166 101.536 121.048 C 107.619 115.485 115.694 112.274 123.908 111.9 Z " fill="rgb(0,167,96)"/><path d=" M 88.856 136.799 C 92.625 136.039 96.704 136.896 99.802 139.181 C 102.877 141.405 104.995 144.897 105.542 148.649 C 106.225 152.951 104.801 157.523 101.8 160.682 C 98.688 164.02 93.876 165.714 89.363 164.927 C 85.518 164.31 81.996 161.999 79.872 158.734 C 77.384 155.019 76.837 150.123 78.354 145.928 C 79.959 141.338 84.071 137.717 88.856 136.799 Z  M 89.817 141.078 C 88.346 141.492 87.059 142.426 86.088 143.593 C 83.174 147.185 82.883 152.568 85.091 156.583 C 86.345 158.871 88.683 160.728 91.374 160.792 C 94.123 160.929 96.63 159.141 97.968 156.836 C 100.392 152.718 100.089 147.018 96.927 143.37 C 95.223 141.362 92.385 140.315 89.817 141.078 Z " fill="rgb(0,167,96)"/><path d=" M 50.69 137.376 C 52.895 137.36 55.099 137.376 57.304 137.366 C 59.278 143.149 61.226 148.939 63.19 154.722 C 63.457 155.502 63.643 156.326 64.104 157.027 C 66.378 150.477 68.646 143.926 70.921 137.376 C 72.738 137.366 74.552 137.373 76.37 137.37 C 73.068 146.364 69.77 155.362 66.455 164.35 C 64.557 164.347 62.663 164.354 60.765 164.344 C 57.4 155.379 54.089 146.394 50.69 137.443 L 50.69 137.376 Z " fill="rgb(0,167,96)"/><path d=" M 110.421 137.37 C 114.523 137.37 118.628 137.363 122.731 137.373 C 124.922 137.37 127.163 137.997 128.89 139.381 C 131.849 141.692 132.912 146.108 131.315 149.506 C 130.321 151.65 128.343 153.115 126.279 154.142 C 128.63 157.51 130.895 160.942 133.203 164.347 C 130.785 164.36 128.37 164.34 125.952 164.357 C 123.488 160.041 121.08 155.693 118.622 151.374 C 120.846 151.544 123.401 151.274 124.972 149.499 C 127.083 147.188 126.159 142.856 123.111 141.855 C 120.883 141.188 118.512 141.629 116.224 141.499 C 116.201 149.116 116.227 156.733 116.211 164.35 C 114.28 164.35 112.345 164.36 110.414 164.34 C 110.421 155.352 110.411 146.361 110.421 137.37 Z " fill="rgb(0,167,96)"/><path d=" M 134.95 137.373 C 137.101 137.363 139.252 137.373 141.404 137.37 C 142.841 143.583 144.222 149.813 145.692 156.019 C 147.32 149.83 148.747 143.586 150.305 137.38 C 152.122 137.363 153.94 137.373 155.761 137.373 C 157.175 143.596 158.579 149.823 159.986 156.046 C 161.641 149.83 163.221 143.593 164.852 137.37 C 166.583 137.37 168.314 137.366 170.045 137.37 C 167.53 146.364 165.006 155.359 162.481 164.35 C 160.563 164.35 158.649 164.357 156.735 164.347 C 155.251 158.641 153.933 152.881 152.356 147.208 C 150.918 152.911 149.548 158.634 148.134 164.347 C 146.233 164.35 144.332 164.35 142.431 164.35 C 139.929 155.359 137.445 146.364 134.95 137.373 Z " fill="rgb(0,167,96)"/><path d=" M 174.247 137.38 C 180.564 137.376 186.88 137.37 193.197 137.383 C 193.197 138.837 193.194 140.291 193.197 141.749 C 188.815 141.759 184.429 141.745 180.047 141.755 C 180.047 143.92 180.043 146.081 180.043 148.245 C 183.949 148.252 187.851 148.239 191.756 148.245 C 191.759 149.703 191.759 151.16 191.756 152.618 C 187.854 152.621 183.952 152.614 180.047 152.621 C 180.043 155.072 180.043 157.527 180.05 159.978 C 184.632 159.985 189.218 159.978 193.804 159.985 C 193.804 161.442 193.804 162.9 193.804 164.357 C 187.287 164.36 180.767 164.357 174.25 164.36 C 174.24 155.366 174.244 146.371 174.247 137.38 Z " fill="rgb(0,167,96)"/><path d=" M 199.093 137.35 C 203.205 137.396 207.317 137.353 211.43 137.373 C 213.631 137.376 215.882 138.023 217.599 139.438 C 220.347 141.639 221.408 145.657 220.191 148.946 C 219.297 151.337 217.199 153.061 214.928 154.088 C 217.206 157.523 219.547 160.919 221.835 164.344 C 219.4 164.344 216.969 164.377 214.534 164.324 C 212.143 159.991 209.682 155.696 207.267 151.374 C 209.439 151.537 211.906 151.287 213.497 149.626 C 215.738 147.345 214.855 142.863 211.733 141.852 C 209.509 141.185 207.137 141.625 204.85 141.505 C 204.846 149.122 204.856 156.736 204.846 164.35 C 202.915 164.35 200.984 164.35 199.053 164.347 C 199.077 155.349 199.003 146.348 199.093 137.35 Z " fill="rgb(0,167,96)"/><path d=" M 225.797 137.366 C 227.725 137.38 229.656 137.366 231.587 137.38 C 231.58 146.371 231.587 155.362 231.583 164.354 C 229.649 164.36 227.721 164.354 225.79 164.357 C 225.784 155.359 225.774 146.361 225.797 137.366 Z " fill="rgb(0,167,96)"/><path d=" M 241.708 137.38 C 244.03 137.35 246.348 137.376 248.669 137.37 C 245.347 141.379 242.002 145.367 238.674 149.373 C 242.372 154.305 246.104 159.218 249.793 164.16 L 249.793 164.347 C 247.251 164.344 244.71 164.374 242.172 164.327 C 238.924 159.424 235.599 154.579 232.34 149.686 C 235.452 145.574 238.594 141.485 241.708 137.38 Z " fill="rgb(0,167,96)"/><path d=" M 139.386 181.909 C 144.799 179.315 149.451 175.193 152.726 170.167 C 156.795 176.423 163.021 181.272 170.142 183.547 C 177.872 186.021 186.537 185.531 193.894 182.073 C 198.91 179.735 203.285 176.083 206.56 171.631 C 207.761 171.617 208.958 171.624 210.159 171.631 C 205.446 178.961 198.026 184.554 189.585 186.815 C 181.638 189.033 172.933 188.356 165.433 184.914 C 160.533 182.69 156.178 179.318 152.726 175.199 C 147.357 181.646 139.706 186.165 131.418 187.562 C 123.318 189.016 114.736 187.489 107.613 183.373 C 102.654 180.509 98.395 176.447 95.306 171.624 C 96.514 171.634 97.718 171.591 98.925 171.647 C 103.441 177.861 110.191 182.453 117.688 184.201 C 124.898 185.941 132.706 185.144 139.386 181.909 Z " fill="rgb(0,167,96)"/></g></svg>