<?xml version="1.0" encoding="UTF-8" standalone="no"?><!-- Generator: Gravit.io --><svg xmlns="http://www.w3.org/2000/svg" xmlns:xlink="http://www.w3.org/1999/xlink" style="isolation:isolate" viewBox="0 0 300 300" width="300pt" height="300pt"><defs><clipPath id="_clipPath_EjGkAJzEakJaKfKQkWnBEcNybZ3gBAbV"><rect width="300" height="300"/></clipPath></defs><g clip-path="url(#_clipPath_EjGkAJzEakJaKfKQkWnBEcNybZ3gBAbV)"><clipPath id="_clipPath_YsnWy4apNnVcGs5DWhYngChqvF0da5DA"><rect x="0" y="0" width="300" height="300" transform="matrix(1,0,0,1,0,0)" fill="rgb(255,255,255)"/></clipPath><g clip-path="url(#_clipPath_YsnWy4apNnVcGs5DWhYngChqvF0da5DA)"><g><g><path d=" M 148.145 129.963 C 153.577 127.739 159.056 125.675 164.488 123.451 C 163.758 126.691 162.995 129.915 162.217 133.14 C 164.886 133.156 167.57 133.156 170.254 133.156 C 169.365 137.015 168.348 140.827 167.284 144.623 C 164.584 144.591 161.899 144.56 159.215 144.528 C 157.69 150.627 154.847 156.663 155.403 163.08 C 157.897 166.256 162.312 164.731 165.743 165.017 C 162.249 170.751 156.706 176.406 149.383 175.739 C 143.316 176.326 137.932 170.672 138.758 164.652 C 139.79 157.854 142.204 151.342 143.761 144.655 C 142.331 144.607 139.456 144.528 138.027 144.496 C 141.632 139.811 145.651 135.379 148.145 129.963 Z " fill="rgb(0,77,15)"/><path d=" M 77.289 127.612 C 82.928 127.025 88.598 127.152 94.253 127.31 C 93.22 137.619 91.14 147.8 89.71 158.061 C 88.948 163.397 86.613 168.877 81.8 171.752 C 72.556 178.073 59.77 176.628 50.907 170.307 C 53.893 166.733 56.927 163.207 59.992 159.681 C 62.756 160.951 65.901 164.096 69.046 162.095 C 71.857 160.252 72.27 156.647 72.921 153.645 C 74.367 144.957 76.082 136.332 77.289 127.612 Z " fill="rgb(0,77,15)"/><path d=" M 95.079 171.418 C 88.026 156.933 98.716 137.587 114.393 134.839 C 122.096 133.33 129.942 135.173 137.058 138.159 C 135.867 147.768 131.975 156.758 130.387 166.272 C 129.831 169.258 131.022 172.117 131.785 174.929 C 126.464 174.913 121.143 174.944 115.822 174.992 C 115.616 172.467 115.52 169.925 115.552 167.368 C 113.027 175.993 100.352 179.249 95.079 171.418 Z  M 108.008 162.857 C 109.151 166.415 116.203 166.606 116.87 162.524 C 118.761 156.456 120.333 150.294 121.651 144.067 C 111.677 142.654 105.736 154.439 108.008 162.857 Z " fill="rgb(0,77,15)"/><path d=" M 176.417 139.334 C 184.946 132.743 196.89 132.965 206.595 136.618 C 205.69 139.779 204.832 142.956 204.07 146.164 C 199.829 143.559 194.365 142.225 189.679 144.464 C 182.611 148.133 181.102 159.776 188.139 164.239 C 192.157 167.05 197.16 165.732 201.576 164.922 C 197.351 176.628 180.213 179.868 171.906 170.767 C 163.599 161.698 166.982 146.291 176.417 139.334 Z " fill="rgb(0,77,15)"/><path d=" M 219.715 134.95 C 228.562 131.901 240.14 133.426 245.779 141.605 C 253.657 153.248 246.684 171.196 233.374 175.199 C 224.257 178.121 212.122 176.58 206.69 167.845 C 199.956 155.98 207.056 139.35 219.715 134.95 Z  M 226.02 144.242 C 220.493 147.911 219.079 155.344 219.413 161.539 C 219.556 166.129 225.957 167.924 228.816 164.541 C 233.104 160.014 234.359 153.168 233.39 147.165 C 232.501 144.179 228.689 143.019 226.02 144.242 Z " fill="rgb(0,77,15)"/></g></g></g></g></svg>