<?xml version="1.0" encoding="UTF-8" standalone="no"?><!-- Generator: Gravit.io --><svg xmlns="http://www.w3.org/2000/svg" xmlns:xlink="http://www.w3.org/1999/xlink" style="isolation:isolate" viewBox="0 0 300 300" width="300pt" height="300pt"><defs><clipPath id="_clipPath_fKIBwldsLy5PvYefCKrXF0AIX8Yg7ZHw"><rect width="300" height="300"/></clipPath></defs><g clip-path="url(#_clipPath_fKIBwldsLy5PvYefCKrXF0AIX8Yg7ZHw)"><clipPath id="_clipPath_CWt6r87vztZgypqPa7qurriiHvnXwi61"><rect x="50.867" y="49.867" width="200.267" height="200.267" transform="matrix(1,0,0,1,0,0)" fill="rgb(255,255,255)"/></clipPath><g clip-path="url(#_clipPath_CWt6r87vztZgypqPa7qurriiHvnXwi61)"><g><g><path d=" M 81.646 104.138 C 108.689 88.186 141.384 83.779 172.19 87.918 C 164.971 111.277 157.845 134.676 150.599 158.035 C 149.701 148.124 149.206 138.186 148.389 128.26 C 143.218 128.194 138.062 128.154 132.892 128.14 C 128.927 140.288 125.244 152.517 121.387 164.692 C 124.44 164.76 127.507 164.732 130.561 164.639 C 133.575 154.768 136.789 144.95 140.017 135.145 C 140.875 144.963 141.303 154.808 142.12 164.625 C 146.848 164.679 151.576 164.692 156.291 164.666 C 164.154 139.498 171.802 114.264 179.664 89.096 C 196.848 92.512 213.805 98.714 227.828 109.429 C 238.852 117.572 247.679 129.265 250.438 142.887 L 250.438 156.884 C 247.679 171.162 238.129 183.297 226.449 191.587 C 207.015 205.585 183.012 211.866 159.372 213.313 C 141.169 214.318 122.792 212.067 105.407 206.602 C 113.457 180.471 121.467 154.326 129.53 128.194 C 126.905 128.207 124.279 128.207 121.654 128.194 C 113.765 153.468 106.13 178.823 98.254 204.097 C 83.186 197.87 68.507 188.936 59.104 175.26 C 54.577 168.804 51.818 161.21 50.867 153.415 L 50.867 145.633 C 53.331 127.644 66.511 113.099 81.646 104.138 Z  M 124.842 117.921 C 124.159 120.331 123.435 122.729 122.686 125.126 C 125.27 125.126 127.869 125.14 130.467 125.153 C 131.204 122.702 131.954 120.264 132.664 117.813 C 130.065 117.84 127.454 117.867 124.842 117.921 Z  M 70.904 128.288 C 67.421 140.409 64.086 152.584 60.658 164.732 C 63.578 164.746 66.484 164.76 69.391 164.746 C 72.391 154.7 75.23 144.588 78.311 134.556 C 78.137 144.615 77.32 154.647 76.69 164.692 C 81.07 164.666 85.45 164.639 89.83 164.679 C 95.804 154.901 101.67 145.057 107.148 134.998 C 105.086 145.15 100.599 154.607 97.92 164.612 C 100.907 164.625 103.894 164.612 106.881 164.612 C 110.631 152.517 114.207 140.369 118.051 128.301 C 112.586 128.301 107.135 128.288 101.67 128.274 C 96.138 137.342 91.531 146.972 85.544 155.758 C 85.892 146.583 86.736 137.449 87.258 128.288 C 81.807 128.274 76.355 128.274 70.904 128.288 Z  M 170.609 128.247 C 169.953 130.511 169.296 132.761 168.613 135.011 C 172.846 134.985 177.079 134.998 181.311 135.065 C 178.284 144.95 175.27 154.834 172.297 164.746 C 174.949 164.8 177.587 164.692 180.226 164.532 C 182.985 154.647 186.133 144.869 189.053 135.025 C 193.299 135.011 197.531 135.011 201.764 134.998 C 202.461 132.748 203.157 130.511 203.853 128.26 C 192.776 128.207 181.686 128.207 170.609 128.247 Z  M 206.505 128.059 C 202.862 140.288 199.152 152.504 195.402 164.692 C 198.013 164.706 200.612 164.719 203.224 164.719 C 204.804 159.348 206.398 153.991 208.086 148.66 C 214.14 148.606 220.207 148.606 226.275 148.646 C 224.507 153.964 222.913 159.348 221.346 164.719 C 223.918 164.719 226.489 164.719 229.074 164.719 C 232.865 152.531 236.388 140.262 240.258 128.1 C 237.647 128.073 235.048 128.059 232.45 128.033 C 231.083 132.573 229.61 137.074 228.378 141.655 C 222.324 141.896 216.256 141.735 210.202 141.748 C 211.515 137.181 212.881 132.64 214.328 128.114 C 211.716 128.073 209.104 128.059 206.505 128.059 Z " fill="rgb(13,83,152)"/></g><g><path d=" M 124.842 117.921 C 127.454 117.867 130.065 117.84 132.664 117.813 C 131.954 120.264 131.204 122.702 130.467 125.153 C 127.869 125.14 125.27 125.126 122.686 125.126 C 123.435 122.729 124.159 120.331 124.842 117.921 Z " fill="rgb(255,255,255)"/><path d=" M 70.904 128.288 C 76.355 128.274 81.807 128.274 87.258 128.288 C 86.736 137.449 85.892 146.583 85.544 155.758 C 91.531 146.972 96.138 137.342 101.67 128.274 C 107.135 128.288 112.586 128.301 118.051 128.301 C 114.207 140.369 110.631 152.517 106.881 164.612 C 103.894 164.612 100.907 164.625 97.92 164.612 C 100.599 154.607 105.086 145.15 107.148 134.998 C 101.67 145.057 95.804 154.901 89.83 164.679 C 85.45 164.639 81.07 164.666 76.69 164.692 C 77.32 154.647 78.137 144.615 78.311 134.556 C 75.23 144.588 72.391 154.7 69.391 164.746 C 66.484 164.76 63.578 164.746 60.658 164.732 C 64.086 152.584 67.421 140.409 70.904 128.288 Z " fill="rgb(255,255,255)"/><path d=" M 170.609 128.247 C 181.686 128.207 192.776 128.207 203.853 128.26 C 203.157 130.511 202.461 132.748 201.764 134.998 C 197.531 135.011 193.299 135.011 189.053 135.025 C 186.133 144.869 182.985 154.647 180.226 164.532 C 177.587 164.692 174.949 164.8 172.297 164.746 C 175.27 154.834 178.284 144.95 181.311 135.065 C 177.079 134.998 172.846 134.985 168.613 135.011 C 169.296 132.761 169.953 130.511 170.609 128.247 Z " fill="rgb(255,255,255)"/><path d=" M 206.505 128.059 C 209.104 128.059 211.716 128.073 214.328 128.114 C 212.881 132.64 211.515 137.181 210.202 141.748 C 216.256 141.735 222.324 141.896 228.378 141.655 C 229.61 137.074 231.083 132.573 232.45 128.033 C 235.048 128.059 237.647 128.073 240.258 128.1 C 236.388 140.262 232.865 152.531 229.074 164.719 C 226.489 164.719 223.918 164.719 221.346 164.719 C 222.913 159.348 224.507 153.964 226.275 148.646 C 220.207 148.606 214.14 148.606 208.086 148.66 C 206.398 153.991 204.804 159.348 203.224 164.719 C 200.612 164.719 198.013 164.706 195.402 164.692 C 199.152 152.504 202.862 140.288 206.505 128.059 Z " fill="rgb(255,255,255)"/></g></g></g></g></svg>